<?xml version="1.0" encoding="UTF-8" standalone="no"?>
<svg
   viewBox="0 0 640 512"
   version="1.1"
   id="svg10"
   sodipodi:docname="balance-scale.svg"
   inkscape:version="1.1.1 (3bf5ae0d25, 2021-09-20)"
   inkscape:export-filename="C:\Users\alecm\OneDrive - Dinamich Ltd\CloudFiler\2.0 Marketing\Graphics\Product Icons\Master icons\balance-scale.png"
   inkscape:export-xdpi="19.125"
   inkscape:export-ydpi="19.125"
   xmlns:inkscape="http://www.inkscape.org/namespaces/inkscape"
   xmlns:sodipodi="http://sodipodi.sourceforge.net/DTD/sodipodi-0.dtd"
   xmlns="http://www.w3.org/2000/svg"
   xmlns:svg="http://www.w3.org/2000/svg">
  <sodipodi:namedview
     id="namedview12"
     pagecolor="#ffffff"
     bordercolor="#666666"
     borderopacity="1.0"
     inkscape:pageshadow="2"
     inkscape:pageopacity="0.0"
     inkscape:pagecheckerboard="true"
     showgrid="false"
     inkscape:showpageshadow="false"
     inkscape:zoom="1.2617188"
     inkscape:cx="259.56656"
     inkscape:cy="255.60372"
     inkscape:window-width="4096"
     inkscape:window-height="2089"
     inkscape:window-x="-18"
     inkscape:window-y="-18"
     inkscape:window-maximized="1"
     inkscape:current-layer="svg10" />
  <!-- Font Awesome Pro 5.15.3 by @fontawesome - https://fontawesome.com License - https://fontawesome.com/license (Commercial License) -->
  <defs
     id="defs4">
    <style
       id="style2">.fa-secondary{opacity:.4}</style>
  </defs>
  <path
     d="M544 464v32a16 16 0 0 1-16 16H112a16 16 0 0 1-16-16v-32a16 16 0 0 1 16-16h176V153.25A80.06 80.06 0 0 1 241.61 96H112a16 16 0 0 1-16-16V48a16 16 0 0 1 16-16h144.36a79.28 79.28 0 0 1 127.28 0H528a16 16 0 0 1 16 16v32a16 16 0 0 1-16 16H398.39A80.06 80.06 0 0 1 352 153.25V448h176a16 16 0 0 1 16 16z"
     class="fa-secondary"
     id="path6" />
  <path
     d="M256 336c0-16.18 1.34-8.73-85-181.51-17.65-35.29-68.19-35.36-85.87 0C-2.06 328.75 0 320.33 0 336c0 44.18 57.31 80 128 80s128-35.82 128-80zM128 176l72 144H56zm512 160c0-16.18 1.34-8.73-85.05-181.51-17.65-35.29-68.19-35.36-85.87 0C381.94 328.75 384 320.33 384 336c0 44.18 57.31 80 128 80s128-35.82 128-80zm-200-16l72-144 72 144z"
     class="fa-primary"
     id="path8"
     style="fill:#7030a0;fill-opacity:1" />
</svg>
