<?xml version="1.0" encoding="UTF-8" standalone="no"?>
<svg
   viewBox="0 0 512 512"
   version="1.1"
   id="svg10"
   sodipodi:docname="bomb.svg"
   inkscape:version="1.1.1 (3bf5ae0d25, 2021-09-20)"
   inkscape:export-filename="C:\Users\alecm\OneDrive - Dinamich Ltd\CloudFiler\2.0 Marketing\Graphics\Product Icons\Master icons\bomb.png"
   inkscape:export-xdpi="24"
   inkscape:export-ydpi="24"
   xmlns:inkscape="http://www.inkscape.org/namespaces/inkscape"
   xmlns:sodipodi="http://sodipodi.sourceforge.net/DTD/sodipodi-0.dtd"
   xmlns="http://www.w3.org/2000/svg"
   xmlns:svg="http://www.w3.org/2000/svg">
  <sodipodi:namedview
     id="namedview12"
     pagecolor="#ffffff"
     bordercolor="#666666"
     borderopacity="1.0"
     inkscape:pageshadow="2"
     inkscape:pageopacity="0.0"
     inkscape:pagecheckerboard="true"
     showgrid="false"
     inkscape:showpageshadow="false"
     inkscape:zoom="1.2617188"
     inkscape:cx="141.07739"
     inkscape:cy="255.60371"
     inkscape:window-width="4096"
     inkscape:window-height="2089"
     inkscape:window-x="-18"
     inkscape:window-y="-18"
     inkscape:window-maximized="1"
     inkscape:current-layer="svg10" />
  <!-- Font Awesome Pro 5.15.3 by @fontawesome - https://fontawesome.com License - https://fontawesome.com/license (Commercial License) -->
  <defs
     id="defs4">
    <style
       id="style2">.fa-secondary{opacity:.4}</style>
  </defs>
  <path
     d="M500 60h-24a12 12 0 0 0 0 24h24a12 12 0 0 0 0-24zM440 0a12 12 0 0 0-12 12v24a12 12 0 0 0 24 0V12a12 12 0 0 0-12-12zm33.9 55l17-17a12 12 0 0 0-17-17l-17 17a12 12 0 0 0 17 17zm-67.8 0a12 12 0 0 0 17-17l-17-17a12 12 0 0 0-17 17zm67.8 34a12 12 0 0 0-17 17l17 17a12 12 0 0 0 17-17zm-102.5 34.5l17.1 17 52-52-17.1-17z"
     class="fa-secondary"
     id="path6" />
  <path
     d="M415 200.9a23.9 23.9 0 0 0 0-33.9l-70.1-70a23.9 23.9 0 0 0-33.9 0l-17.4 17.4A207.35 207.35 0 0 0 208 96C93.1 96 0 189.1 0 304s93.1 207.9 208 207.9 208-93.1 208-208a207.35 207.35 0 0 0-18.4-85.6zM176 208a64.06 64.06 0 0 0-64 64 16 16 0 0 1-32 0 96.15 96.15 0 0 1 96-96 16 16 0 0 1 0 32z"
     class="fa-primary"
     id="path8"
     style="fill:#7030a0;fill-opacity:1"
     inkscape:export-filename="C:\Users\alecm\OneDrive - Dinamich Ltd\CloudFiler\2.0 Marketing\Graphics\Product Icons\Master icons\bomb-128.png"
     inkscape:export-xdpi="29.115004"
     inkscape:export-ydpi="29.115004" />
</svg>
