<?xml version="1.0" encoding="UTF-8" standalone="no"?>
<svg
   viewBox="0 0 512 512"
   version="1.1"
   id="svg10"
   sodipodi:docname="bug.svg"
   inkscape:version="1.1.1 (3bf5ae0d25, 2021-09-20)"
   inkscape:export-filename="C:\Users\alecm\OneDrive - Dinamich Ltd\CloudFiler\2.0 Marketing\Graphics\Product Icons\Master icons\bug-24.png"
   inkscape:export-xdpi="4.5"
   inkscape:export-ydpi="4.5"
   xmlns:inkscape="http://www.inkscape.org/namespaces/inkscape"
   xmlns:sodipodi="http://sodipodi.sourceforge.net/DTD/sodipodi-0.dtd"
   xmlns="http://www.w3.org/2000/svg"
   xmlns:svg="http://www.w3.org/2000/svg">
  <sodipodi:namedview
     id="namedview12"
     pagecolor="#ffffff"
     bordercolor="#666666"
     borderopacity="1.0"
     inkscape:pageshadow="2"
     inkscape:pageopacity="0.0"
     inkscape:pagecheckerboard="true"
     showgrid="false"
     showborder="true"
     inkscape:showpageshadow="false"
     inkscape:zoom="1.2617188"
     inkscape:cx="217.56037"
     inkscape:cy="255.60372"
     inkscape:window-width="1920"
     inkscape:window-height="1009"
     inkscape:window-x="1039"
     inkscape:window-y="2142"
     inkscape:window-maximized="1"
     inkscape:current-layer="svg10" />
  <!-- Font Awesome Pro 5.15.3 by @fontawesome - https://fontawesome.com License - https://fontawesome.com/license (Commercial License) -->
  <defs
     id="defs4">
    <style
       id="style2">.fa-secondary{opacity:.4}</style>
  </defs>
  <path
     d="M369 112H145a112 112 0 0 1 224 0z"
     class="fa-secondary"
     id="path6" />
  <path
     d="M512 288.9c-.48 17.43-15.22 31.1-32.66 31.1H424v16a143.4 143.4 0 0 1-13.6 61.14l60.23 60.23a32 32 0 0 1-45.26 45.26l-54.73-54.74A143.42 143.42 0 0 1 280 480V236a12 12 0 0 0-12-12h-24a12 12 0 0 0-12 12v244a143.42 143.42 0 0 1-90.64-32.11l-54.73 54.74a32 32 0 0 1-45.26-45.26l60.23-60.23A143.4 143.4 0 0 1 88 336v-16H32.67C15.23 320 .49 306.33 0 288.9A32 32 0 0 1 32 256h56v-58.74l-46.63-46.63a32 32 0 0 1 45.26-45.26L141.25 160h229.49l54.63-54.63a32 32 0 0 1 45.26 45.26L424 197.26V256h56a32 32 0 0 1 32 32.9z"
     class="fa-primary"
     id="path8"
     style="fill:#7030a0;fill-opacity:1" />
</svg>
