<?xml version="1.0" encoding="UTF-8" standalone="no"?>
<svg
   viewBox="0 0 512 512"
   version="1.1"
   id="svg10"
   sodipodi:docname="calendar.svg"
   width="512"
   height="512"
   inkscape:version="1.1 (c68e22c387, 2021-05-23)"
   xmlns:inkscape="http://www.inkscape.org/namespaces/inkscape"
   xmlns:sodipodi="http://sodipodi.sourceforge.net/DTD/sodipodi-0.dtd"
   xmlns="http://www.w3.org/2000/svg"
   xmlns:svg="http://www.w3.org/2000/svg">
  <sodipodi:namedview
     id="namedview12"
     pagecolor="#ffffff"
     bordercolor="#666666"
     borderopacity="1.0"
     inkscape:pageshadow="2"
     inkscape:pageopacity="0.0"
     inkscape:pagecheckerboard="true"
     showgrid="false"
     inkscape:showpageshadow="false"
     inkscape:zoom="1.3203125"
     inkscape:cx="224.18935"
     inkscape:cy="256"
     inkscape:window-width="2682"
     inkscape:window-height="1428"
     inkscape:window-x="588"
     inkscape:window-y="386"
     inkscape:window-maximized="0"
     inkscape:current-layer="svg10" />
  <!-- Font Awesome Pro 5.15.3 by @fontawesome - https://fontawesome.com License - https://fontawesome.com/license (Commercial License) -->
  <defs
     id="defs4">
    <style
       id="style2">.fa-secondary{opacity:.4}</style>
  </defs>
  <path
     d="m 32,192 v 272 a 48,48 0 0 0 48,48 h 352 a 48,48 0 0 0 48,-48 V 192 Z m 128,244 a 12,12 0 0 1 -12,12 H 108 A 12,12 0 0 1 96,436 v -40 a 12,12 0 0 1 12,-12 h 40 a 12,12 0 0 1 12,12 z m 0,-128 a 12,12 0 0 1 -12,12 H 108 A 12,12 0 0 1 96,308 v -40 a 12,12 0 0 1 12,-12 h 40 a 12,12 0 0 1 12,12 z m 128,128 a 12,12 0 0 1 -12,12 h -40 a 12,12 0 0 1 -12,-12 v -40 a 12,12 0 0 1 12,-12 h 40 a 12,12 0 0 1 12,12 z m 0,-128 a 12,12 0 0 1 -12,12 h -40 a 12,12 0 0 1 -12,-12 v -40 a 12,12 0 0 1 12,-12 h 40 a 12,12 0 0 1 12,12 z m 128,128 a 12,12 0 0 1 -12,12 h -40 a 12,12 0 0 1 -12,-12 v -40 a 12,12 0 0 1 12,-12 h 40 a 12,12 0 0 1 12,12 z m 0,-128 a 12,12 0 0 1 -12,12 h -40 a 12,12 0 0 1 -12,-12 v -40 a 12,12 0 0 1 12,-12 h 40 a 12,12 0 0 1 12,12 z M 336,128 h 32 a 16,16 0 0 0 16,-16 V 16 A 16,16 0 0 0 368,0 h -32 a 16,16 0 0 0 -16,16 v 96 a 16,16 0 0 0 16,16 z m -192,0 h 32 a 16,16 0 0 0 16,-16 V 16 A 16,16 0 0 0 176,0 h -32 a 16,16 0 0 0 -16,16 v 96 a 16,16 0 0 0 16,16 z"
     class="fa-secondary"
     id="path6" />
  <path
     d="m 480,112 v 80 H 32 V 112 A 48,48 0 0 1 80,64 h 48 v 48 a 16,16 0 0 0 16,16 h 32 a 16,16 0 0 0 16,-16 V 64 h 128 v 48 a 16,16 0 0 0 16,16 h 32 a 16,16 0 0 0 16,-16 V 64 h 48 a 48,48 0 0 1 48,48 z"
     class="fa-primary"
     id="path8"
     style="fill:#7030a0;fill-opacity:1" />
</svg>
