<?xml version="1.0" encoding="UTF-8" standalone="no"?>
<svg
   viewBox="0 0 448 512"
   version="1.1"
   id="svg10"
   sodipodi:docname="checkbox-checked-outline2.svg"
   inkscape:version="1.1 (c68e22c387, 2021-05-23)"
   xmlns:inkscape="http://www.inkscape.org/namespaces/inkscape"
   xmlns:sodipodi="http://sodipodi.sourceforge.net/DTD/sodipodi-0.dtd"
   xmlns="http://www.w3.org/2000/svg"
   xmlns:svg="http://www.w3.org/2000/svg">
  <sodipodi:namedview
     id="namedview12"
     pagecolor="#ffffff"
     bordercolor="#666666"
     borderopacity="1.0"
     inkscape:pageshadow="2"
     inkscape:pageopacity="0.0"
     inkscape:pagecheckerboard="true"
     showgrid="false"
     inkscape:showpageshadow="false"
     inkscape:zoom="1.3203125"
     inkscape:cx="224.18935"
     inkscape:cy="255.6213"
     inkscape:window-width="1920"
     inkscape:window-height="1017"
     inkscape:window-x="1049"
     inkscape:window-y="2152"
     inkscape:window-maximized="1"
     inkscape:current-layer="svg10" />
  <!-- Font Awesome Pro 5.15.3 by @fontawesome - https://fontawesome.com License - https://fontawesome.com/license (Commercial License) -->
  <defs
     id="defs4">
    <style
       id="style2">.fa-secondary{opacity:.4}</style>
  </defs>
  <path
     style="stroke:#000000;stroke-opacity:1;fill:none"
     d="m 379.31,197.94 -184,184 a 16,16 0 0 1 -22.62,0 l -104,-104 a 16,16 0 0 1 0,-22.63 l 22.62,-22.62 a 16,16 0 0 1 22.63,0 L 184,302.75 334.06,152.69 a 16,16 0 0 1 22.63,0 l 22.62,22.62 a 16,16 0 0 1 0,22.63 z"
     id="path879" />
  <path
     style="opacity:0.4;fill:none;stroke:#000000;stroke-width:59.5011;stroke-miterlimit:4;stroke-dasharray:none;stroke-opacity:1"
     d="M 378.17649,61.801413 H 73.5727 A 41.536881,42.019731 0 0 0 32.035819,103.82114 v 308.1447 A 41.536881,42.019731 0 0 0 73.5727,453.98556 h 304.60379 a 41.536881,42.019731 0 0 0 41.53689,-42.01972 V 103.82114 A 41.536881,42.019731 0 0 0 378.17649,61.801413 Z"
     id="path6" />
  <path
     d="M195.31 381.94a16 16 0 0 1-22.62 0l-104-104a16 16 0 0 1 0-22.63l22.62-22.62a16 16 0 0 1 22.63 0L184 302.74l150.06-150a16 16 0 0 1 22.63 0l22.62 22.62a16 16 0 0 1 0 22.63l-184 184z"
     class="fa-primary"
     id="path8"
     style="fill:#7030a0;fill-opacity:1" />
</svg>
