<?xml version="1.0" encoding="UTF-8" standalone="no"?>
<svg
   viewBox="0 0 640 640"
   version="1.1"
   id="svg19"
   sodipodi:docname="cloudfiler-download-black - Copy.svg"
   inkscape:version="1.1 (c68e22c387, 2021-05-23)"
   inkscape:export-filename="C:\Users\alecm\OneDrive\Personal\Projects\CloudFiler\1.0 Product design\CloudFiler icons\cloud-download-black-24.png"
   inkscape:export-xdpi="3.5999999"
   inkscape:export-ydpi="3.5999999"
   width="640"
   height="640"
   xmlns:inkscape="http://www.inkscape.org/namespaces/inkscape"
   xmlns:sodipodi="http://sodipodi.sourceforge.net/DTD/sodipodi-0.dtd"
   xmlns="http://www.w3.org/2000/svg"
   xmlns:svg="http://www.w3.org/2000/svg">
  <defs
     id="defs23" />
  <sodipodi:namedview
     id="namedview21"
     pagecolor="#ffffff"
     bordercolor="#666666"
     borderopacity="1.0"
     inkscape:pageshadow="2"
     inkscape:pageopacity="0.0"
     inkscape:pagecheckerboard="true"
     showgrid="false"
     inkscape:zoom="0.88125"
     inkscape:cx="217.87234"
     inkscape:cy="257.02128"
     inkscape:window-width="1694"
     inkscape:window-height="1203"
     inkscape:window-x="2124"
     inkscape:window-y="499"
     inkscape:window-maximized="0"
     inkscape:current-layer="svg19"
     inkscape:showpageshadow="false" />
  <path
     style="fill:none;fill-opacity:1;stroke:#000000;stroke-width:42.601;stroke-linecap:butt;stroke-linejoin:round;stroke-miterlimit:4;stroke-dasharray:none;stroke-opacity:1;opacity:0.4"
     d="m 394.53154,511.21977 c 78.27877,-0.4318 133.5528,-2.08321 147.9961,-6.60547 19.41284,-7.74208 43.04686,-28.80348 54.19727,-43.53906 11.15041,-14.73558 13.87757,-26.22886 16.16211,-38.06445 2.62185,-13.58318 2.01689,-35.58881 -1.32813,-48.27539 -9.81389,-37.22098 -40.46075,-68.01339 -79.41797,-79.79884 -5.71356,-1.72849 -10.592,-3.3023 -10.84179,-3.49804 -0.24981,-0.19577 0.67746,-4.40132 2.06054,-9.34571 3.35722,-12.00032 3.35438,-31.95471 -0.006,-42.83789 -6.16449,-19.96558 -18.42551,-36.21422 -35.56054,-47.1289 -14.464,-9.2133 -26.43329,-13.07097 -43.54493,-14.03515 -17.00759,-0.95833 -28.94654,1.1239 -42.95703,7.49218 -5.85385,2.66079 -11.19711,4.83794 -11.87305,4.83593 -0.67594,-0.001 -3.22019,-3.0219 -5.65429,-6.71289 -7.45792,-11.30898 -28.70763,-31.1464 -42.92578,-40.07225 -22.80322,-14.31538 -49.88379,-22.05097 -77.40821,-22.45899 -9.1748,-0.136 -18.39992,0.54284 -27.53125,2.0625 -52.53429,8.74294 -96.04216,44.4764 -113.63281,93.33007 -3.98417,11.06506 -7.85974,32.84765 -7.87304,44.2461 l -0.008,7.49804 -8.42382,3.54688 c -19.278608,8.11977 -39.950548,23.74207 -53.078138,40.11133 -20.14525,25.11981 -30.02224,58.60228 -26.17578,88.73047 6.97891,54.66381 48.30556,98.00589 104.701178,109.80859 h 0.002 c 32.29539,0.15385 92.22656,0.44922 92.22656,0.44922"
     sodipodi:nodetypes="cczsssscsssscssssscccsscsc"
     id="path9502"
     inkscape:export-filename="C:\Users\alecm\OneDrive\Personal\Projects\CloudFiler\1.0 Product design\CloudFiler icons\cloudfiler-logo-black-128.png"
     inkscape:export-xdpi="19.125"
     inkscape:export-ydpi="19.125" />
  <path
     style="fill:#7030a0;fill-opacity:1;stroke:none;stroke-width:12.3558;stroke-miterlimit:4;stroke-dasharray:none;stroke-opacity:1"
     d="m 276.93251,232.86832 c -4.08295,1.8979 -8.15231,6.58126 -9.25786,10.65476 -0.55576,2.04774 -0.85109,23.40415 -0.85405,61.75852 l -0.004,58.62836 h -34.77172 c -22.59878,0 -35.56987,0.30855 -37.0516,0.88139 -8.16265,3.15564 -12.48474,14.9631 -8.41026,22.97586 0.86947,1.70983 26.30228,28.33208 57.29837,59.97808 58.15766,59.37757 57.40603,58.68655 63.8332,58.68655 6.43371,0 5.62396,0.74606 64.58931,-59.50927 40.86383,-41.75781 56.73927,-58.49737 57.38949,-60.51332 0.49439,-1.53277 0.74597,-4.94989 0.55908,-7.59361 -0.38983,-5.51444 -1.61079,-12.62411 -6.99794,-12.49441 l -2.84726,-1.99695 -35.8971,-0.23197 -35.8971,-0.23199 v -59.25165 c 0,-64.73427 0.15491,-62.4995 -4.69973,-67.79678 -4.86686,-5.31062 -5.80961,-5.45264 -36.19875,-5.45264 -24.90531,0 -27.84572,0.14417 -30.78205,1.50907 z"
     id="path3414"
     sodipodi:nodetypes="ssccssscssssscccssss"
     inkscape:export-filename="C:\Users\alecm\OneDrive\Personal\Projects\CloudFiler\1.0 Product design\CloudFiler icons\cloudfiler-logo-black-128.png"
     inkscape:export-xdpi="19.125"
     inkscape:export-ydpi="19.125" />
</svg>
