<?xml version="1.0" encoding="UTF-8" standalone="no"?>
<svg
   viewBox="0 0 640 512"
   version="1.1"
   id="svg10"
   sodipodi:docname="code.svg"
   inkscape:version="1.1 (c68e22c387, 2021-05-23)"
   xmlns:inkscape="http://www.inkscape.org/namespaces/inkscape"
   xmlns:sodipodi="http://sodipodi.sourceforge.net/DTD/sodipodi-0.dtd"
   xmlns="http://www.w3.org/2000/svg"
   xmlns:svg="http://www.w3.org/2000/svg">
  <sodipodi:namedview
     id="namedview12"
     pagecolor="#ffffff"
     bordercolor="#666666"
     borderopacity="1.0"
     inkscape:pageshadow="2"
     inkscape:pageopacity="0.0"
     inkscape:pagecheckerboard="true"
     showgrid="false"
     inkscape:showpageshadow="false"
     inkscape:zoom="1.3203125"
     inkscape:cx="320"
     inkscape:cy="256"
     inkscape:window-width="2589"
     inkscape:window-height="1352"
     inkscape:window-x="1390"
     inkscape:window-y="715"
     inkscape:window-maximized="0"
     inkscape:current-layer="svg10" />
  <!-- Font Awesome Pro 5.15.3 by @fontawesome - https://fontawesome.com License - https://fontawesome.com/license (Commercial License) -->
  <defs
     id="defs4">
    <style
       id="style2">.fa-secondary{opacity:.4}</style>
  </defs>
  <path
     d="M422.12 18.16a12 12 0 0 1 8.2 14.9l-136.5 470.2a12 12 0 0 1-14.89 8.2l-61-17.7a12 12 0 0 1-8.2-14.9l136.5-470.2a12 12 0 0 1 14.89-8.2z"
     class="fa-secondary"
     id="path6" />
  <path
     d="M636.23 247.26l-144.11-135.2a12.11 12.11 0 0 0-17 .5L431.62 159a12 12 0 0 0 .81 17.2L523 256l-90.59 79.7a11.92 11.92 0 0 0-.81 17.2l43.5 46.4a12 12 0 0 0 17 .6l144.11-135.1a11.94 11.94 0 0 0 .02-17.54zm-427.8-88.2l-43.5-46.4a12 12 0 0 0-17-.5l-144.11 135a11.94 11.94 0 0 0 0 17.5l144.11 135.1a11.92 11.92 0 0 0 17-.5l43.5-46.4a12 12 0 0 0-.81-17.2L117 256l90.6-79.7a11.92 11.92 0 0 0 .83-17.24z"
     class="fa-primary"
     id="path8"
     style="fill:#7030a0;fill-opacity:1" />
</svg>
