<?xml version="1.0" encoding="UTF-8" standalone="no"?>
<svg
   viewBox="0 0 512 512"
   version="1.1"
   id="svg10"
   sodipodi:docname="cog.svg"
   inkscape:version="1.1 (c68e22c387, 2021-05-23)"
   xmlns:inkscape="http://www.inkscape.org/namespaces/inkscape"
   xmlns:sodipodi="http://sodipodi.sourceforge.net/DTD/sodipodi-0.dtd"
   xmlns="http://www.w3.org/2000/svg"
   xmlns:svg="http://www.w3.org/2000/svg">
  <sodipodi:namedview
     id="namedview12"
     pagecolor="#ffffff"
     bordercolor="#666666"
     borderopacity="1.0"
     inkscape:pageshadow="2"
     inkscape:pageopacity="0.0"
     inkscape:pagecheckerboard="true"
     showgrid="false"
     inkscape:showpageshadow="false"
     inkscape:zoom="1.3203125"
     inkscape:cx="251.83432"
     inkscape:cy="255.6213"
     inkscape:window-width="2377"
     inkscape:window-height="1185"
     inkscape:window-x="402"
     inkscape:window-y="710"
     inkscape:window-maximized="0"
     inkscape:current-layer="svg10" />
  <!-- Font Awesome Pro 5.15.3 by @fontawesome - https://fontawesome.com License - https://fontawesome.com/license (Commercial License) -->
  <defs
     id="defs4">
    <style
       id="style2">.fa-secondary{opacity:.4}</style>
  </defs>
  <path
     d="M487.75 315.6l-42.6-24.6a192.62 192.62 0 0 0 0-70.2l42.6-24.6a12.11 12.11 0 0 0 5.5-14 249.2 249.2 0 0 0-54.7-94.6 12 12 0 0 0-14.8-2.3l-42.6 24.6a188.83 188.83 0 0 0-60.8-35.1V25.7A12 12 0 0 0 311 14a251.43 251.43 0 0 0-109.2 0 12 12 0 0 0-9.4 11.7v49.2a194.59 194.59 0 0 0-60.8 35.1L89.05 85.4a11.88 11.88 0 0 0-14.8 2.3 247.66 247.66 0 0 0-54.7 94.6 12 12 0 0 0 5.5 14l42.6 24.6a192.62 192.62 0 0 0 0 70.2l-42.6 24.6a12.08 12.08 0 0 0-5.5 14 249 249 0 0 0 54.7 94.6 12 12 0 0 0 14.8 2.3l42.6-24.6a188.54 188.54 0 0 0 60.8 35.1v49.2a12 12 0 0 0 9.4 11.7 251.43 251.43 0 0 0 109.2 0 12 12 0 0 0 9.4-11.7v-49.2a194.7 194.7 0 0 0 60.8-35.1l42.6 24.6a11.89 11.89 0 0 0 14.8-2.3 247.52 247.52 0 0 0 54.7-94.6 12.36 12.36 0 0 0-5.6-14.1zm-231.4 36.2a95.9 95.9 0 1 1 95.9-95.9 95.89 95.89 0 0 1-95.9 95.9z"
     class="fa-secondary"
     id="path6"
     style="fill:#000000;fill-opacity:1;opacity:0.4" />
  <path
     d="m 256.35,319.8 a 63.9,63.9 0 1 1 63.9,-63.9 63.9,63.9 0 0 1 -63.9,63.9 z"
     class="fa-primary"
     id="path8"
     style="mix-blend-mode:normal;fill:#7030a0;fill-opacity:1" />
</svg>
