<?xml version="1.0" encoding="UTF-8" standalone="no"?>
<svg
   viewBox="0 0 512 512"
   version="1.1"
   id="svg10"
   sodipodi:docname="coin.svg"
   inkscape:version="1.1 (c68e22c387, 2021-05-23)"
   inkscape:export-filename="C:\Users\alecm\OneDrive\Personal\Projects\CloudFiler\1.0 Product design\CloudFiler icons\Master icons\coin.png"
   inkscape:export-xdpi="19.125"
   inkscape:export-ydpi="19.125"
   xmlns:inkscape="http://www.inkscape.org/namespaces/inkscape"
   xmlns:sodipodi="http://sodipodi.sourceforge.net/DTD/sodipodi-0.dtd"
   xmlns="http://www.w3.org/2000/svg"
   xmlns:svg="http://www.w3.org/2000/svg">
  <sodipodi:namedview
     id="namedview12"
     pagecolor="#ffffff"
     bordercolor="#666666"
     borderopacity="1.0"
     inkscape:pageshadow="2"
     inkscape:pageopacity="0.0"
     inkscape:pagecheckerboard="0"
     showgrid="false"
     inkscape:zoom="1.3203125"
     inkscape:cx="224.94675"
     inkscape:cy="255.6213"
     inkscape:window-width="4096"
     inkscape:window-height="2097"
     inkscape:window-x="-8"
     inkscape:window-y="-8"
     inkscape:window-maximized="1"
     inkscape:current-layer="svg10" />
  <!-- Font Awesome Pro 5.15.3 by @fontawesome - https://fontawesome.com License - https://fontawesome.com/license (Commercial License) -->
  <defs
     id="defs4">
    <style
       id="style2">.fa-secondary{opacity:.4}</style>
  </defs>
  <path
     d="M0 208C0 128.44 114.67 64 256 64s256 64.44 256 144-114.67 144-256 144S0 287.56 0 208z"
     class="fa-secondary"
     id="path6" />
  <path
     d="M0 320c0 27.77 18 53.37 48 74.33V330c-18.85-12-35.4-25.36-48-40.38zm80 92.51c27.09 12.89 59.66 22.81 96 28.8V377c-35.39-6-67.81-15.88-96-29zM464 330v64.32c30.05-21 48-46.56 48-74.33v-30.36C499.4 304.65 482.85 318 464 330zM336 441.31c36.34-6 68.91-15.91 96-28.8V348c-28.19 13.12-60.61 23-96 29zM208 381.2v64.09c15.62 1.51 31.49 2.71 48 2.71s32.38-1.2 48-2.71V381.2a477.2 477.2 0 0 1-48 2.8 477.2 477.2 0 0 1-48-2.8z"
     class="fa-primary"
     id="path8"
     style="fill:#7030a0;fill-opacity:1" />
</svg>
