<?xml version="1.0" encoding="UTF-8" standalone="no"?>
<svg
   viewBox="0 0 576 512"
   version="1.1"
   id="svg10"
   sodipodi:docname="comments.svg"
   inkscape:version="1.1 (c68e22c387, 2021-05-23)"
   inkscape:export-filename="C:\Users\alecm\OneDrive\Personal\Projects\CloudFiler\1.0 Product design\CloudFiler icons\Master icons\comments.png"
   inkscape:export-xdpi="19.125"
   inkscape:export-ydpi="19.125"
   xmlns:inkscape="http://www.inkscape.org/namespaces/inkscape"
   xmlns:sodipodi="http://sodipodi.sourceforge.net/DTD/sodipodi-0.dtd"
   xmlns="http://www.w3.org/2000/svg"
   xmlns:svg="http://www.w3.org/2000/svg">
  <sodipodi:namedview
     id="namedview12"
     pagecolor="#ffffff"
     bordercolor="#666666"
     borderopacity="1.0"
     inkscape:pageshadow="2"
     inkscape:pageopacity="0.0"
     inkscape:pagecheckerboard="0"
     showgrid="false"
     inkscape:zoom="1.3203125"
     inkscape:cx="256.7574"
     inkscape:cy="255.6213"
     inkscape:window-width="4096"
     inkscape:window-height="2097"
     inkscape:window-x="-8"
     inkscape:window-y="-8"
     inkscape:window-maximized="1"
     inkscape:current-layer="svg10" />
  <!-- Font Awesome Pro 5.15.3 by @fontawesome - https://fontawesome.com License - https://fontawesome.com/license (Commercial License) -->
  <defs
     id="defs4">
    <style
       id="style2">.fa-secondary{opacity:.4}</style>
  </defs>
  <path
     d="M208 352c-41 0-79.1-9.3-111.3-25-21.8 12.7-52.1 25-88.7 25a7.83 7.83 0 0 1-7.3-4.8 8 8 0 0 1 1.5-8.7c.3-.3 22.4-24.3 35.8-54.5-23.9-26.1-38-57.7-38-92C0 103.6 93.1 32 208 32s208 71.6 208 160-93.1 160-208 160z"
     class="fa-secondary"
     id="path6" />
  <path
     d="M576 320c0 34.3-14.1 66-38 92 13.4 30.3 35.5 54.2 35.8 54.5a8 8 0 0 1 1.5 8.7 7.88 7.88 0 0 1-7.3 4.8c-36.6 0-66.9-12.3-88.7-25-32.2 15.8-70.3 25-111.3 25-86.2 0-160.2-40.4-191.7-97.9A299.82 299.82 0 0 0 208 384c132.3 0 240-86.1 240-192a148.61 148.61 0 0 0-1.3-20.1C522.5 195.8 576 253.1 576 320z"
     class="fa-primary"
     id="path8"
     style="fill:#7030a0;fill-opacity:1" />
</svg>
