<?xml version="1.0" encoding="UTF-8" standalone="no"?>
<svg
   viewBox="0 0 448 512"
   version="1.1"
   id="svg10"
   sodipodi:docname="copy.svg"
   inkscape:version="1.1.1 (3bf5ae0d25, 2021-09-20)"
   xmlns:inkscape="http://www.inkscape.org/namespaces/inkscape"
   xmlns:sodipodi="http://sodipodi.sourceforge.net/DTD/sodipodi-0.dtd"
   xmlns="http://www.w3.org/2000/svg"
   xmlns:svg="http://www.w3.org/2000/svg">
  <sodipodi:namedview
     id="namedview12"
     pagecolor="#ffffff"
     bordercolor="#666666"
     borderopacity="1.0"
     inkscape:pageshadow="2"
     inkscape:pageopacity="0.0"
     inkscape:pagecheckerboard="true"
     showgrid="false"
     inkscape:showpageshadow="false"
     inkscape:zoom="1.2617188"
     inkscape:cx="141.47368"
     inkscape:cy="255.60372"
     inkscape:window-width="4096"
     inkscape:window-height="2089"
     inkscape:window-x="-18"
     inkscape:window-y="-18"
     inkscape:window-maximized="1"
     inkscape:current-layer="svg10" />
  <!-- Font Awesome Pro 5.15.3 by @fontawesome - https://fontawesome.com License - https://fontawesome.com/license (Commercial License) -->
  <defs
     id="defs4">
    <style
       id="style2">.fa-secondary{opacity:.4}</style>
  </defs>
  <path
     d="M352 96V0H152a24 24 0 0 0-24 24v368a24 24 0 0 0 24 24h272a24 24 0 0 0 24-24V96z"
     class="fa-secondary"
     id="path6" />
  <path
     d="M96 392V96H24a24 24 0 0 0-24 24v368a24 24 0 0 0 24 24h272a24 24 0 0 0 24-24v-40H152a56.06 56.06 0 0 1-56-56zM441 73L375 7a24 24 0 0 0-17-7h-6v96h96v-6.06A24 24 0 0 0 441 73z"
     class="fa-primary"
     id="path8"
     style="fill:#7030a0;fill-opacity:1" />
</svg>
