<?xml version="1.0" encoding="UTF-8" standalone="no"?>
<svg
   viewBox="0 0 730 512"
   version="1.1"
   id="svg10"
   sodipodi:docname="credit-card-front.svg"
   inkscape:version="1.1 (c68e22c387, 2021-05-23)"
   width="730"
   height="512"
   xmlns:inkscape="http://www.inkscape.org/namespaces/inkscape"
   xmlns:sodipodi="http://sodipodi.sourceforge.net/DTD/sodipodi-0.dtd"
   xmlns="http://www.w3.org/2000/svg"
   xmlns:svg="http://www.w3.org/2000/svg">
  <sodipodi:namedview
     id="namedview12"
     pagecolor="#ffffff"
     bordercolor="#666666"
     borderopacity="1.0"
     inkscape:pageshadow="2"
     inkscape:pageopacity="0.0"
     inkscape:pagecheckerboard="true"
     showgrid="false"
     inkscape:showpageshadow="false"
     inkscape:zoom="1.3203125"
     inkscape:cx="287.81065"
     inkscape:cy="255.6213"
     inkscape:window-width="2696"
     inkscape:window-height="1475"
     inkscape:window-x="708"
     inkscape:window-y="281"
     inkscape:window-maximized="0"
     inkscape:current-layer="svg10" />
  <!-- Font Awesome Pro 5.15.3 by @fontawesome - https://fontawesome.com License - https://fontawesome.com/license (Commercial License) -->
  <defs
     id="defs4">
    <style
       id="style2">.fa-secondary{opacity:.4}</style>
  </defs>
  <g
     id="g825"
     transform="matrix(1.2673611,0,0,1.1428571,0,-36.571427)">
    <path
       d="m 268,256 h -64 a 12,12 0 0 0 -12,12 v 40 a 12,12 0 0 0 12,12 h 64 a 12,12 0 0 0 12,-12 v -40 a 12,12 0 0 0 -12,-12 z m -104,0 H 76 a 12,12 0 0 0 -12,12 v 40 a 12,12 0 0 0 12,12 h 88 a 12,12 0 0 0 12,-12 v -40 a 12,12 0 0 0 -12,-12 z m 208,0 h -64 a 12,12 0 0 0 -12,12 v 40 a 12,12 0 0 0 12,12 h 64 a 12,12 0 0 0 12,-12 v -40 a 12,12 0 0 0 -12,-12 z m 128,0 h -88 a 12,12 0 0 0 -12,12 v 40 a 12,12 0 0 0 12,12 h 88 a 12,12 0 0 0 12,-12 v -40 a 12,12 0 0 0 -12,-12 z"
       class="fa-secondary"
       id="path6" />
    <path
       d="M 528,32 H 48 A 48,48 0 0 0 0,80 v 352 a 48,48 0 0 0 48,48 h 480 a 48,48 0 0 0 48,-48 V 80 A 48,48 0 0 0 528,32 Z M 192,268 a 12,12 0 0 1 12,-12 h 64 a 12,12 0 0 1 12,12 v 40 a 12,12 0 0 1 -12,12 h -64 a 12,12 0 0 1 -12,-12 z m -32,136 a 12,12 0 0 1 -12,12 H 76 A 12,12 0 0 1 64,404 v -8 a 12,12 0 0 1 12,-12 h 72 a 12,12 0 0 1 12,12 z m 16,-96 a 12,12 0 0 1 -12,12 H 76 A 12,12 0 0 1 64,308 v -40 a 12,12 0 0 1 12,-12 h 88 a 12,12 0 0 1 12,12 z m 176,96 a 12,12 0 0 1 -12,12 H 204 a 12,12 0 0 1 -12,-12 v -8 a 12,12 0 0 1 12,-12 h 136 a 12,12 0 0 1 12,12 z m 32,-96 a 12,12 0 0 1 -12,12 h -64 a 12,12 0 0 1 -12,-12 v -40 a 12,12 0 0 1 12,-12 h 64 a 12,12 0 0 1 12,12 z m 128,0 a 12,12 0 0 1 -12,12 h -88 a 12,12 0 0 1 -12,-12 v -40 a 12,12 0 0 1 12,-12 h 88 a 12,12 0 0 1 12,12 z m 0,-140 a 23.94,23.94 0 0 1 -24,24 h -80 a 23.94,23.94 0 0 1 -24,-24 v -48 a 23.94,23.94 0 0 1 24,-24 h 80 a 23.94,23.94 0 0 1 24,24 z"
       class="fa-primary"
       id="path8"
       style="fill:#7030a0;fill-opacity:1" />
  </g>
</svg>
