<?xml version="1.0" encoding="UTF-8" standalone="no"?>
<svg
   viewBox="0 0 512 512"
   version="1.1"
   id="svg10"
   sodipodi:docname="cubes.svg"
   inkscape:version="1.1 (c68e22c387, 2021-05-23)"
   width="512"
   height="512"
   inkscape:export-filename="C:\Users\alecm\OneDrive\Personal\Projects\CloudFiler\1.0 Product design\CloudFiler icons\Master icons\cubes.png"
   inkscape:export-xdpi="96"
   inkscape:export-ydpi="96"
   xmlns:inkscape="http://www.inkscape.org/namespaces/inkscape"
   xmlns:sodipodi="http://sodipodi.sourceforge.net/DTD/sodipodi-0.dtd"
   xmlns="http://www.w3.org/2000/svg"
   xmlns:svg="http://www.w3.org/2000/svg">
  <sodipodi:namedview
     id="namedview12"
     pagecolor="#ffffff"
     bordercolor="#666666"
     borderopacity="1.0"
     inkscape:pageshadow="2"
     inkscape:pageopacity="0.0"
     inkscape:pagecheckerboard="true"
     showgrid="false"
     inkscape:zoom="1.3203125"
     inkscape:cx="209.42012"
     inkscape:cy="376.80473"
     inkscape:window-width="4096"
     inkscape:window-height="2097"
     inkscape:window-x="-8"
     inkscape:window-y="-8"
     inkscape:window-maximized="1"
     inkscape:current-layer="svg10"
     showborder="true"
     inkscape:showpageshadow="false" />
  <!-- Font Awesome Pro 5.15.3 by @fontawesome - https://fontawesome.com License - https://fontawesome.com/license (Commercial License) -->
  <defs
     id="defs4">
    <style
       id="style2">.fa-secondary{opacity:.4}</style>
  </defs>
  <g
     id="g825"
     transform="matrix(0.99999999,0,0,1.1428186,2.9371166e-6,-36.572768)">
    <path
       d="M 488.6,250.2 392,214 V 105.52 a 36,36 0 0 0 -23.4,-33.7 l -100,-37.5 a 35.68,35.68 0 0 0 -25.3,0 l -100,37.5 a 36,36 0 0 0 -23.4,33.7 V 214 L 23.3,250.2 A 36,36 0 0 0 0,283.9 V 394 a 36,36 0 0 0 19.9,32.2 l 100,50 a 35.86,35.86 0 0 0 32.2,0 l 103.9,-52 103.9,52 a 35.86,35.86 0 0 0 32.2,0 l 100,-50 A 36,36 0 0 0 512,394 V 283.9 A 36,36 0 0 0 488.6,250.2 Z M 238,395.18 l -85,42.5 v -79.09 l 85,-38.8 z m 0,-112 L 136,324.59 34,283.2 v -0.6 l 102,-38.2 102,38.2 z M 154,104.72 v -0.6 l 102,-38.2 102,38.2 v 0.6 l -102,41.39 z m 119,73.79 85,-37 v 73.29 l -85,31.9 z m 205,216.67 -85,42.5 v -79.09 l 85,-38.8 z m 0,-112 -102,41.41 -102,-41.39 v -0.6 l 102,-38.2 102,38.2 z"
       class="fa-secondary"
       id="path6" />
    <path
       d="m 153,437.68 85,-42.5 v -75.39 l -85,38.8 z m 240,-79.09 v 79.09 l 85,-42.5 V 319.79 Z M 273,246.7 358,214.8 v -73.29 l -85,37 z"
       class="fa-primary"
       id="path8"
       style="fill:#7030a0;fill-opacity:1" />
  </g>
</svg>
