<?xml version="1.0" encoding="UTF-8" standalone="no"?>
<svg
   viewBox="0 0 512 512"
   version="1.1"
   id="svg10"
   sodipodi:docname="download.svg"
   inkscape:version="1.1.1 (3bf5ae0d25, 2021-09-20)"
   xmlns:inkscape="http://www.inkscape.org/namespaces/inkscape"
   xmlns:sodipodi="http://sodipodi.sourceforge.net/DTD/sodipodi-0.dtd"
   xmlns="http://www.w3.org/2000/svg"
   xmlns:svg="http://www.w3.org/2000/svg">
  <sodipodi:namedview
     id="namedview12"
     pagecolor="#ffffff"
     bordercolor="#666666"
     borderopacity="1.0"
     inkscape:pageshadow="2"
     inkscape:pageopacity="0.0"
     inkscape:pagecheckerboard="true"
     showgrid="false"
     inkscape:showpageshadow="false"
     inkscape:zoom="1.2617188"
     inkscape:cx="172.78019"
     inkscape:cy="256"
     inkscape:window-width="2615"
     inkscape:window-height="1574"
     inkscape:window-x="-4"
     inkscape:window-y="11"
     inkscape:window-maximized="0"
     inkscape:current-layer="svg10" />
  <!-- Font Awesome Pro 5.15.3 by @fontawesome - https://fontawesome.com License - https://fontawesome.com/license (Commercial License) -->
  <defs
     id="defs4">
    <style
       id="style2">.fa-secondary{opacity:.4}</style>
  </defs>
  <path
     d="M320 24v168h87.7c17.8 0 26.7 21.5 14.1 34.1L269.7 378.3a19.37 19.37 0 0 1-27.3 0L90.1 226.1c-12.6-12.6-3.7-34.1 14.1-34.1H192V24a23.94 23.94 0 0 1 24-24h80a23.94 23.94 0 0 1 24 24z"
     class="fa-secondary"
     id="path6" />
  <path
     d="M488 352H341.3l-49 49a51.24 51.24 0 0 1-72.6 0l-49-49H24a23.94 23.94 0 0 0-24 24v112a23.94 23.94 0 0 0 24 24h464a23.94 23.94 0 0 0 24-24V376a23.94 23.94 0 0 0-24-24zm-120 96a16 16 0 1 1 16-16 16 16 0 0 1-16 16zm64 0a16 16 0 1 1 16-16 16 16 0 0 1-16 16z"
     class="fa-primary"
     id="path8"
     style="fill:#7030a0;fill-opacity:1" />
</svg>
