<?xml version="1.0" encoding="UTF-8" standalone="no"?>
<svg
   viewBox="0 0 512 512"
   version="1.1"
   id="svg10"
   sodipodi:docname="envelope-open-text.svg"
   inkscape:version="1.1 (c68e22c387, 2021-05-23)"
   xmlns:inkscape="http://www.inkscape.org/namespaces/inkscape"
   xmlns:sodipodi="http://sodipodi.sourceforge.net/DTD/sodipodi-0.dtd"
   xmlns="http://www.w3.org/2000/svg"
   xmlns:svg="http://www.w3.org/2000/svg">
  <sodipodi:namedview
     id="namedview12"
     pagecolor="#ffffff"
     bordercolor="#666666"
     borderopacity="1.0"
     inkscape:pageshadow="2"
     inkscape:pageopacity="0.0"
     inkscape:pagecheckerboard="true"
     showgrid="false"
     inkscape:showpageshadow="false"
     inkscape:zoom="1.3203125"
     inkscape:cx="256"
     inkscape:cy="255.6213"
     inkscape:window-width="2616"
     inkscape:window-height="1537"
     inkscape:window-x="902"
     inkscape:window-y="409"
     inkscape:window-maximized="0"
     inkscape:current-layer="svg10" />
  <!-- Font Awesome Pro 5.15.3 by @fontawesome - https://fontawesome.com License - https://fontawesome.com/license (Commercial License) -->
  <defs
     id="defs4">
    <style
       id="style2">.fa-secondary{opacity:.4}</style>
  </defs>
  <path
     d="M64,257.6,227.9,376a47.72,47.72,0,0,0,56.2,0L448,257.6V96a32,32,0,0,0-32-32H96A32,32,0,0,0,64,96ZM160,160a16,16,0,0,1,16-16H336a16,16,0,0,1,16,16v16a16,16,0,0,1-16,16H176a16,16,0,0,1-16-16Zm0,80a16,16,0,0,1,16-16H336a16,16,0,0,1,16,16v16a16,16,0,0,1-16,16H176a16,16,0,0,1-16-16Z"
     class="fa-secondary"
     id="path6" />
  <path
     d="M352,160a16,16,0,0,0-16-16H176a16,16,0,0,0-16,16v16a16,16,0,0,0,16,16H336a16,16,0,0,0,16-16Zm-16,64H176a16,16,0,0,0-16,16v16a16,16,0,0,0,16,16H336a16,16,0,0,0,16-16V240A16,16,0,0,0,336,224ZM329.4,41.4C312.6,29.2,279.2-.3,256,0c-23.2-.3-56.6,29.2-73.4,41.4L152,64H360ZM64,129c-23.9,17.7-42.7,31.6-45.6,34A48,48,0,0,0,0,200.7v10.7l64,46.2Zm429.6,34c-2.9-2.3-21.7-16.3-45.6-33.9V257.6l64-46.2V200.7A48,48,0,0,0,493.6,163ZM256,417.1a80,80,0,0,1-46.9-15.2L0,250.9V464a48,48,0,0,0,48,48H464a48,48,0,0,0,48-48V250.9l-209.1,151A80,80,0,0,1,256,417.1Z"
     class="fa-primary"
     id="path8"
     style="fill:#7030a0;fill-opacity:1" />
</svg>
