<?xml version="1.0" encoding="UTF-8" standalone="no"?>
<svg
   viewBox="0 0 424.66986 552.0061"
   version="1.1"
   id="svg10"
   sodipodi:docname="file-upload.svg"
   inkscape:version="1.1.1 (3bf5ae0d25, 2021-09-20)"
   inkscape:export-filename="C:\Users\alecm\OneDrive - Dinamich Ltd\CloudFiler\2.0 Marketing\Graphics\Product Icons\Master icons\file-upload-32.png"
   inkscape:export-xdpi="5.565156"
   inkscape:export-ydpi="5.565156"
   width="424.66986"
   height="552.0061"
   xmlns:inkscape="http://www.inkscape.org/namespaces/inkscape"
   xmlns:sodipodi="http://sodipodi.sourceforge.net/DTD/sodipodi-0.dtd"
   xmlns="http://www.w3.org/2000/svg"
   xmlns:svg="http://www.w3.org/2000/svg">
  <sodipodi:namedview
     id="namedview12"
     pagecolor="#ffffff"
     bordercolor="#666666"
     borderopacity="1.0"
     inkscape:pageshadow="2"
     inkscape:pageopacity="0.0"
     inkscape:pagecheckerboard="true"
     showgrid="false"
     showborder="true"
     inkscape:showpageshadow="false"
     inkscape:zoom="1.2617188"
     inkscape:cx="129.98142"
     inkscape:cy="276.60681"
     inkscape:window-width="2373"
     inkscape:window-height="1420"
     inkscape:window-x="965"
     inkscape:window-y="343"
     inkscape:window-maximized="0"
     inkscape:current-layer="svg10" />
  <!-- Font Awesome Pro 5.15.3 by @fontawesome - https://fontawesome.com License - https://fontawesome.com/license (Commercial License) -->
  <defs
     id="defs4">
    <style
       id="style2">.fa-secondary{opacity:.4}</style>
  </defs>
  <path
     d="m 404.00008,148.00606 h -112 c -8.83656,0 -16,-7.16344 -16,-16 V 20.006053 H 44.000074 c -13.221714,-0.03318 -23.966905,10.658287 -24,23.880001 V 508.00606 c -0.03318,13.22171 10.658286,23.9669 23.88,24 H 380.00008 c 13.22171,0.0332 23.9669,-10.65829 24,-23.88 z"
     class="fa-secondary"
     id="path6"
     style="fill:#ffffff;fill-opacity:1;stroke:#000000;stroke-width:40;stroke-miterlimit:4;stroke-dasharray:none;stroke-opacity:1"
     inkscape:export-filename="C:\Users\alecm\OneDrive - Dinamich Ltd\CloudFiler\2.0 Marketing\Graphics\Product Icons\Master icons\file-upload-32.png"
     inkscape:export-xdpi="6"
     inkscape:export-ydpi="6"
     sodipodi:nodetypes="csscccccccc" />
  <path
     d="m 225.58522,238.70265 c -6.64762,-6.57846 -17.35238,-6.57846 -24,0 l -96.45001,95.64 c -10.139997,10.07 -3.01,27.36 11.27,27.36 h 65.18001 v 80 c 0,8.83656 7.16344,16 16,16 h 32 c 8.83656,0 16,-7.16344 16,-16 v -80 h 65.18 c 14.25,0 21.4,-17.29 11.25,-27.36 z"
     class="fa-primary"
     id="path8"
     style="fill:#7030a0;fill-opacity:1"
     sodipodi:nodetypes="cccscsssscscc" />
  <path
     id="path8-9"
     style="fill:#7030a0;fill-opacity:1"
     class="fa-primary"
     d="m 281.40039,0.00597663 c -8.4668,0 -16.93359,0 -25.40039,0 0.0108,44.83065437 -0.0507,89.66204437 0.0937,134.49219337 0.80996,14.14473 10.92474,27.21944 24.37809,31.62583 6.1297,2.12592 12.70548,1.95992 19.10199,1.88004 41.6987,6.4e-4 83.39739,0.001 125.09609,0.002 -0.32659,-6.13044 -0.66325,-12.17128 -0.67383,-18.29102 -0.0102,-6.47062 0.27155,-13.07654 -1.54957,-19.36171 -2.22937,-8.28518 -7.10989,-15.6913 -13.30414,-21.56168 C 400.23881,99.996853 391.39944,91.068234 382.51715,82.211905 358.79231,58.489434 335.11314,34.721671 311.32115,11.069117 303.18946,3.8261916 292.28177,-0.17649537 281.40039,0.00597663 Z" />
</svg>
