<?xml version="1.0" encoding="UTF-8" standalone="no"?>
<svg
   viewBox="0 0 512 512"
   version="1.1"
   id="svg10"
   sodipodi:docname="film.svg"
   inkscape:version="1.1 (c68e22c387, 2021-05-23)"
   xmlns:inkscape="http://www.inkscape.org/namespaces/inkscape"
   xmlns:sodipodi="http://sodipodi.sourceforge.net/DTD/sodipodi-0.dtd"
   xmlns="http://www.w3.org/2000/svg"
   xmlns:svg="http://www.w3.org/2000/svg">
  <sodipodi:namedview
     id="namedview12"
     pagecolor="#ffffff"
     bordercolor="#666666"
     borderopacity="1.0"
     inkscape:pageshadow="2"
     inkscape:pageopacity="0.0"
     inkscape:pagecheckerboard="true"
     showgrid="false"
     inkscape:showpageshadow="false"
     inkscape:zoom="1.3203125"
     inkscape:cx="256"
     inkscape:cy="255.6213"
     inkscape:window-width="4096"
     inkscape:window-height="2097"
     inkscape:window-x="-8"
     inkscape:window-y="-8"
     inkscape:window-maximized="1"
     inkscape:current-layer="svg10" />
  <!-- Font Awesome Pro 5.15.3 by @fontawesome - https://fontawesome.com License - https://fontawesome.com/license (Commercial License) -->
  <defs
     id="defs4">
    <style
       id="style2">.fa-secondary{opacity:.4}</style>
  </defs>
  <path
     d="M356 280H156a12 12 0 0 0-12 12v96a12 12 0 0 0 12 12h200a12 12 0 0 0 12-12v-96a12 12 0 0 0-12-12zm0-168H156a12 12 0 0 0-12 12v96a12 12 0 0 0 12 12h200a12 12 0 0 0 12-12v-96a12 12 0 0 0-12-12z"
     class="fa-secondary"
     id="path6" />
  <path
     d="M488 64h-8v20a12 12 0 0 1-12 12h-40a12 12 0 0 1-12-12V64H96v20a12 12 0 0 1-12 12H44a12 12 0 0 1-12-12V64h-8A23.94 23.94 0 0 0 0 88v336a23.94 23.94 0 0 0 24 24h8v-20a12 12 0 0 1 12-12h40a12 12 0 0 1 12 12v20h320v-20a12 12 0 0 1 12-12h40a12 12 0 0 1 12 12v20h8a23.94 23.94 0 0 0 24-24V88a23.94 23.94 0 0 0-24-24zM96 372a12 12 0 0 1-12 12H44a12 12 0 0 1-12-12v-40a12 12 0 0 1 12-12h40a12 12 0 0 1 12 12zm0-96a12 12 0 0 1-12 12H44a12 12 0 0 1-12-12v-40a12 12 0 0 1 12-12h40a12 12 0 0 1 12 12zm0-96a12 12 0 0 1-12 12H44a12 12 0 0 1-12-12v-40a12 12 0 0 1 12-12h40a12 12 0 0 1 12 12zm272 208a12 12 0 0 1-12 12H156a12 12 0 0 1-12-12v-96a12 12 0 0 1 12-12h200a12 12 0 0 1 12 12zm0-168a12 12 0 0 1-12 12H156a12 12 0 0 1-12-12v-96a12 12 0 0 1 12-12h200a12 12 0 0 1 12 12zm112 152a12 12 0 0 1-12 12h-40a12 12 0 0 1-12-12v-40a12 12 0 0 1 12-12h40a12 12 0 0 1 12 12zm0-96a12 12 0 0 1-12 12h-40a12 12 0 0 1-12-12v-40a12 12 0 0 1 12-12h40a12 12 0 0 1 12 12zm0-96a12 12 0 0 1-12 12h-40a12 12 0 0 1-12-12v-40a12 12 0 0 1 12-12h40a12 12 0 0 1 12 12z"
     class="fa-primary"
     id="path8"
     style="fill:#7030a0;fill-opacity:1" />
</svg>
