<?xml version="1.0" encoding="UTF-8" standalone="no"?>
<svg
   viewBox="0 0 576 512"
   version="1.1"
   id="svg10"
   sodipodi:docname="folder-open.svg"
   inkscape:version="1.1.1 (3bf5ae0d25, 2021-09-20)"
   inkscape:export-filename="C:\Users\alecm\OneDrive - Dinamich Ltd\CloudFiler\2.0 Marketing\Graphics\Product Icons\Master icons\folder-open-256.png"
   inkscape:export-xdpi="42.75"
   inkscape:export-ydpi="42.75"
   xmlns:inkscape="http://www.inkscape.org/namespaces/inkscape"
   xmlns:sodipodi="http://sodipodi.sourceforge.net/DTD/sodipodi-0.dtd"
   xmlns="http://www.w3.org/2000/svg"
   xmlns:svg="http://www.w3.org/2000/svg">
  <sodipodi:namedview
     id="namedview12"
     pagecolor="#ffffff"
     bordercolor="#666666"
     borderopacity="1.0"
     inkscape:pageshadow="2"
     inkscape:pageopacity="0.0"
     inkscape:pagecheckerboard="true"
     showgrid="false"
     inkscape:showpageshadow="false"
     inkscape:zoom="1.3203125"
     inkscape:cx="235.5503"
     inkscape:cy="255.6213"
     inkscape:window-width="1904"
     inkscape:window-height="1001"
     inkscape:window-x="340"
     inkscape:window-y="391"
     inkscape:window-maximized="0"
     inkscape:current-layer="svg10" />
  <!-- Font Awesome Pro 5.15.3 by @fontawesome - https://fontawesome.com License - https://fontawesome.com/license (Commercial License) -->
  <defs
     id="defs4">
    <style
       id="style2">.fa-secondary{opacity:.4}</style>
    <style
       id="style2-9">.fa-secondary{opacity:.4}</style>
  </defs>
  <path
     d="M 69.08,207.63 0,326.05 V 48 A 48,48 0 0 1 48,0 h 160 l 64,64 h 160 a 48,48 0 0 1 48,48 v 48 H 152 a 96.31,96.31 0 0 0 -82.92,47.63 z"
     class="fa-secondary"
     id="path6" />
  <path
     d="m 152,192 h 400 a 24,24 0 0 1 20.73,36.09 L 500.27,352.25 A 64,64 0 0 1 445,384 H 45 A 24,24 0 0 1 24.27,347.91 L 96.72,223.75 A 64,64 0 0 1 152,192 Z"
     class="fa-primary"
     id="path8"
     style="fill:#7030a0;fill-opacity:1" />
</svg>
