<?xml version="1.0" encoding="UTF-8" standalone="no"?>
<svg
   viewBox="0 0 512 512"
   version="1.1"
   id="svg10"
   sodipodi:docname="globe-europe.svg"
   width="512"
   height="512"
   inkscape:version="1.1 (c68e22c387, 2021-05-23)"
   xmlns:inkscape="http://www.inkscape.org/namespaces/inkscape"
   xmlns:sodipodi="http://sodipodi.sourceforge.net/DTD/sodipodi-0.dtd"
   xmlns="http://www.w3.org/2000/svg"
   xmlns:svg="http://www.w3.org/2000/svg">
  <sodipodi:namedview
     id="namedview12"
     pagecolor="#ffffff"
     bordercolor="#666666"
     borderopacity="1.0"
     inkscape:pageshadow="2"
     inkscape:pageopacity="0.0"
     inkscape:pagecheckerboard="true"
     showgrid="false"
     inkscape:showpageshadow="false"
     inkscape:zoom="1.3203125"
     inkscape:cx="247.66864"
     inkscape:cy="255.6213"
     inkscape:window-width="2718"
     inkscape:window-height="1497"
     inkscape:window-x="1000"
     inkscape:window-y="445"
     inkscape:window-maximized="0"
     inkscape:current-layer="svg10" />
  <!-- Font Awesome Pro 5.15.3 by @fontawesome - https://fontawesome.com License - https://fontawesome.com/license (Commercial License) -->
  <defs
     id="defs4">
    <style
       id="style2">.fa-secondary{opacity:.4}</style>
  </defs>
  <path
     d="M 495.54,320.4 H 446.9 a 15.8,15.8 0 0 1 -11.4,-4.8 l -32,-32.6 a 11.92,11.92 0 0 1 0.1,-16.7 l 12.5,-12.5 v -8.7 a 11.37,11.37 0 0 0 -3.3,-8 l -9.4,-9.4 a 11.37,11.37 0 0 0 -8,-3.3 h -16 a 11.31,11.31 0 0 1 -8,-19.3 l 9.4,-9.4 a 11.37,11.37 0 0 1 8,-3.3 h 32 a 11.35,11.35 0 0 0 11.3,-11.3 v -9.4 a 11.35,11.35 0 0 0 -11.3,-11.3 h -36.7 a 16,16 0 0 0 -16,16 v 4.5 a 16,16 0 0 1 -10.9,15.2 l -31.6,10.5 a 8,8 0 0 0 -5.5,7.6 v 2.2 a 8,8 0 0 1 -8,8 h -16 a 8,8 0 0 1 -8,-8 8,8 0 0 0 -8,-8 H 277 a 8.14,8.14 0 0 0 -7.2,4.4 l -9.4,18.7 a 15.94,15.94 0 0 1 -14.3,8.8 H 224 a 16,16 0 0 1 -16,-16 V 199 a 16,16 0 0 1 4.7,-11.3 l 20.1,-20.1 a 24.77,24.77 0 0 0 7.2,-17.5 8,8 0 0 1 5.5,-7.6 l 40,-13.3 a 11.66,11.66 0 0 0 4.4,-2.7 l 26.8,-26.8 a 11.31,11.31 0 0 0 -8,-19.3 H 288 l -16,16 v 8 a 8,8 0 0 1 -8,8 h -16 a 8,8 0 0 1 -8,-8 v -20 A 8.05,8.05 0 0 1 243.2,78 L 325.62,17.92 A 247.79,247.79 0 0 0 256,8 C 119,8 8,119 8,256 8,393 119,504 256,504 a 251.57,251.57 0 0 0 32.1,-2.06 V 448.4 a 16,16 0 0 0 -16,-16 h -20.2 c -10.8,0 -26.7,-5.3 -35.4,-11.8 l -22.2,-16.7 a 45.42,45.42 0 0 1 -18.2,-36.4 v -23.9 a 45.46,45.46 0 0 1 22.1,-39 l 42.9,-25.7 a 46.13,46.13 0 0 1 23.4,-6.5 h 31.2 a 45.62,45.62 0 0 1 29.6,10.9 l 43.2,37.1 h 18.3 a 32,32 0 0 1 22.6,9.4 l 17.3,17.3 0.08,0.08 C 440,359.06 448,375.62 448,393.37 V 413 a 247.11,247.11 0 0 0 47.54,-92.6 z M 195.4,157.1 a 11.37,11.37 0 0 1 -8,3.3 h -16 a 11.31,11.31 0 0 1 -8,-19.3 l 25.4,-25.4 a 11.31,11.31 0 0 1 19.3,8 v 16 a 11.37,11.37 0 0 1 -3.3,8 z"
     class="fa-secondary"
     id="path6" />
  <path
     d="m 195.4,157.1 9.4,-9.4 a 11.37,11.37 0 0 0 3.3,-8 v -16 a 11.31,11.31 0 0 0 -19.3,-8 l -25.4,25.4 a 11.31,11.31 0 0 0 8,19.3 h 16 a 11.37,11.37 0 0 0 8,-3.3 z m 231.38,190.08 -0.08,-0.08 -17.3,-17.3 a 32,32 0 0 0 -22.6,-9.4 h -18.3 l -43.2,-37.1 a 45.62,45.62 0 0 0 -29.6,-10.9 h -31.2 a 46.13,46.13 0 0 0 -23.4,6.5 l -42.9,25.7 a 45.46,45.46 0 0 0 -22.1,39 v 23.9 a 45.42,45.42 0 0 0 18.2,36.4 l 22.2,16.7 c 8.7,6.5 24.6,11.8 35.4,11.8 h 20.2 a 16,16 0 0 1 16,16 v 53.54 A 247.57,247.57 0 0 0 448,413 v -19.63 c 0,-17.75 -8,-34.31 -21.22,-46.19 z M 325.62,17.92 243.2,78 a 8.05,8.05 0 0 0 -3.2,6.4 v 20 a 8,8 0 0 0 8,8 h 16 a 8,8 0 0 0 8,-8 v -8 l 16,-16 h 20.7 a 11.31,11.31 0 0 1 8,19.3 l -26.8,26.8 a 11.66,11.66 0 0 1 -4.4,2.7 l -40,13.3 a 8,8 0 0 0 -5.5,7.6 24.77,24.77 0 0 1 -7.2,17.5 l -20.1,20.1 A 16,16 0 0 0 208,199 v 25.3 a 16,16 0 0 0 16,16 h 22.1 a 15.94,15.94 0 0 0 14.3,-8.8 l 9.4,-18.7 a 8.14,8.14 0 0 1 7.2,-4.4 h 3.1 a 8,8 0 0 1 8,8 8,8 0 0 0 8,8 h 16 a 8,8 0 0 0 8,-8 v -2.2 a 8,8 0 0 1 5.5,-7.6 l 31.6,-10.5 a 16,16 0 0 0 10.9,-15.2 v -4.5 a 16,16 0 0 1 16,-16 h 36.7 a 11.35,11.35 0 0 1 11.3,11.3 v 9.4 a 11.35,11.35 0 0 1 -11.3,11.3 h -32 a 11.37,11.37 0 0 0 -8,3.3 l -9.4,9.4 a 11.31,11.31 0 0 0 8,19.3 h 16 a 11.37,11.37 0 0 1 8,3.3 l 9.4,9.4 a 11.37,11.37 0 0 1 3.3,8 v 8.7 l -12.5,12.5 a 11.92,11.92 0 0 0 -0.1,16.7 l 32,32.6 a 15.8,15.8 0 0 0 11.4,4.8 h 48.64 A 248.29,248.29 0 0 0 504,256 C 504,143.18 428.71,48 325.62,17.92 Z"
     class="fa-primary"
     id="path8"
     style="fill:#7030a0;fill-opacity:1" />
</svg>
