<?xml version="1.0" encoding="UTF-8" standalone="no"?>
<svg
   viewBox="0 0 496 512"
   version="1.1"
   id="svg10"
   sodipodi:docname="grin-stars.svg"
   inkscape:version="1.1.1 (3bf5ae0d25, 2021-09-20)"
   xmlns:inkscape="http://www.inkscape.org/namespaces/inkscape"
   xmlns:sodipodi="http://sodipodi.sourceforge.net/DTD/sodipodi-0.dtd"
   xmlns="http://www.w3.org/2000/svg"
   xmlns:svg="http://www.w3.org/2000/svg">
  <sodipodi:namedview
     id="namedview12"
     pagecolor="#ffffff"
     bordercolor="#666666"
     borderopacity="1.0"
     inkscape:pageshadow="2"
     inkscape:pageopacity="0.0"
     inkscape:pagecheckerboard="true"
     showgrid="false"
     inkscape:showpageshadow="false"
     inkscape:zoom="1.2617188"
     inkscape:cx="165.25077"
     inkscape:cy="255.60372"
     inkscape:window-width="4096"
     inkscape:window-height="2089"
     inkscape:window-x="-18"
     inkscape:window-y="-18"
     inkscape:window-maximized="1"
     inkscape:current-layer="svg10" />
  <!-- Font Awesome Pro 5.15.3 by @fontawesome - https://fontawesome.com License - https://fontawesome.com/license (Commercial License) -->
  <defs
     id="defs4">
    <style
       id="style2">.fa-secondary{opacity:.4}</style>
  </defs>
  <path
     d="M248,8C111,8,0,119,0,256S111,504,248,504,496,393,496,256,385,8,248,8ZM94.6,168.9l34.9-5L145,132.3a7.73,7.73,0,0,1,13.9,0l15.5,31.6,34.9,5a7.78,7.78,0,0,1,4.3,13.2l-25.4,24.6,6,34.9a7.48,7.48,0,0,1-11,7.9L152,233.3l-31.3,16.3a7.48,7.48,0,0,1-11-7.9l6-34.9L90.3,182.2a7.85,7.85,0,0,1,4.3-13.3ZM391.8,338.7c-9.3,55-83.2,93.3-143.8,93.3s-134.5-38.3-143.8-93.3a16.06,16.06,0,0,1,20.7-17.9C155.1,330.5,200,336,248,336s92.9-5.5,123.1-15.2a16,16,0,0,1,20.7,17.9Zm13.9-156.6-25.4,24.6,6,34.9a7.48,7.48,0,0,1-11,7.9L344,233.3l-31.3,16.3a7.48,7.48,0,0,1-11-7.9l6-34.9-25.4-24.6a7.81,7.81,0,0,1,4.3-13.2l34.9-5L337,132.4a7.73,7.73,0,0,1,13.9,0L366.4,164l34.9,5a7.7,7.7,0,0,1,4.4,13.1Z"
     class="fa-secondary"
     id="path6" />
  <path
     d="M209.3,168.9l-34.9-5-15.5-31.6a7.73,7.73,0,0,0-13.9,0l-15.5,31.6-34.9,5a7.85,7.85,0,0,0-4.3,13.3l25.4,24.6-6,34.9a7.48,7.48,0,0,0,11,7.9L152,233.3l31.2,16.2a7.48,7.48,0,0,0,11-7.9l-6-34.9,25.4-24.6a7.78,7.78,0,0,0-4.3-13.2Zm192,.1-34.9-5-15.5-31.6a7.73,7.73,0,0,0-13.9,0L321.5,164l-34.9,5a7.81,7.81,0,0,0-6.47,8.95V178a7.92,7.92,0,0,0,2.16,4.24l25.4,24.6-6,34.9a7.48,7.48,0,0,0,11,7.9L344,233.3l31.3,16.2a7.48,7.48,0,0,0,11-7.9l-6-34.9,25.4-24.6a7.68,7.68,0,0,0-4.4-13.1Z"
     class="fa-primary"
     id="path8"
     style="fill:#7030a0;fill-opacity:1" />
</svg>
