<?xml version="1.0" encoding="UTF-8" standalone="no"?>
<svg
   viewBox="0 0 640 512"
   version="1.1"
   id="svg10"
   sodipodi:docname="Group.svg"
   inkscape:version="1.1 (c68e22c387, 2021-05-23)"
   xmlns:inkscape="http://www.inkscape.org/namespaces/inkscape"
   xmlns:sodipodi="http://sodipodi.sourceforge.net/DTD/sodipodi-0.dtd"
   xmlns="http://www.w3.org/2000/svg"
   xmlns:svg="http://www.w3.org/2000/svg">
  <sodipodi:namedview
     id="namedview12"
     pagecolor="#ffffff"
     bordercolor="#666666"
     borderopacity="1.0"
     inkscape:pageshadow="2"
     inkscape:pageopacity="0.0"
     inkscape:pagecheckerboard="true"
     showgrid="false"
     inkscape:showpageshadow="false"
     inkscape:zoom="1.3203125"
     inkscape:cx="319.6213"
     inkscape:cy="255.6213"
     inkscape:window-width="1920"
     inkscape:window-height="1017"
     inkscape:window-x="1049"
     inkscape:window-y="2152"
     inkscape:window-maximized="1"
     inkscape:current-layer="svg10" />
  <!-- Font Awesome Pro 5.15.3 by @fontawesome - https://fontawesome.com License - https://fontawesome.com/license (Commercial License) -->
  <defs
     id="defs4">
    <style
       id="style2">.fa-secondary{opacity:.4}</style>
  </defs>
  <path
     d="M96 224a64 64 0 1 0-64-64 64.06 64.06 0 0 0 64 64zm480 32h-64a63.81 63.81 0 0 0-45.1 18.6A146.27 146.27 0 0 1 542 384h66a32 32 0 0 0 32-32v-32a64.06 64.06 0 0 0-64-64zm-512 0a64.06 64.06 0 0 0-64 64v32a32 32 0 0 0 32 32h65.9a146.64 146.64 0 0 1 75.2-109.4A63.81 63.81 0 0 0 128 256zm480-32a64 64 0 1 0-64-64 64.06 64.06 0 0 0 64 64z"
     class="fa-secondary"
     id="path6" />
  <path
     d="M396.8 288h-8.3a157.53 157.53 0 0 1-68.5 16c-24.6 0-47.6-6-68.5-16h-8.3A115.23 115.23 0 0 0 128 403.2V432a48 48 0 0 0 48 48h288a48 48 0 0 0 48-48v-28.8A115.23 115.23 0 0 0 396.8 288zM320 256a112 112 0 1 0-112-112 111.94 111.94 0 0 0 112 112z"
     class="fa-primary"
     id="path8"
     style="fill:#7030a0;fill-opacity:1" />
</svg>
