<?xml version="1.0" encoding="UTF-8" standalone="no"?>
<svg
   viewBox="0 0 512 512"
   version="1.1"
   id="svg10"
   sodipodi:docname="info.svg"
   inkscape:version="1.1 (c68e22c387, 2021-05-23)"
   xmlns:inkscape="http://www.inkscape.org/namespaces/inkscape"
   xmlns:sodipodi="http://sodipodi.sourceforge.net/DTD/sodipodi-0.dtd"
   xmlns="http://www.w3.org/2000/svg"
   xmlns:svg="http://www.w3.org/2000/svg">
  <sodipodi:namedview
     id="namedview12"
     pagecolor="#ffffff"
     bordercolor="#666666"
     borderopacity="1.0"
     inkscape:pageshadow="2"
     inkscape:pageopacity="0.0"
     inkscape:pagecheckerboard="true"
     showgrid="false"
     inkscape:showpageshadow="false"
     inkscape:zoom="1.3203125"
     inkscape:cx="256"
     inkscape:cy="255.6213"
     inkscape:window-width="1920"
     inkscape:window-height="1017"
     inkscape:window-x="1049"
     inkscape:window-y="2152"
     inkscape:window-maximized="1"
     inkscape:current-layer="svg10" />
  <!-- Font Awesome Pro 5.15.3 by @fontawesome - https://fontawesome.com License - https://fontawesome.com/license (Commercial License) -->
  <defs
     id="defs4">
    <style
       id="style2">.fa-secondary{opacity:.4}</style>
  </defs>
  <path
     style="stroke:none;stroke-opacity:1;stroke-width:60;stroke-miterlimit:4;stroke-dasharray:none;fill:none"
     d="m 312,372 a 12,12 0 0 1 -12,12 h -88 a 12,12 0 0 1 -12,-12 v -24 a 12,12 0 0 1 12,-12 h 12 v -64 h -12 a 12,12 0 0 1 -12,-12 v -24 a 12,12 0 0 1 12,-12 h 64 a 12,12 0 0 1 12,12 v 100 h 12 a 12,12 0 0 1 12,12 z"
     id="path941" />
  <path
     style="stroke:none;stroke-opacity:1;stroke-width:60;stroke-miterlimit:4;stroke-dasharray:none;fill:none"
     d="m 256,118 a 42,42 0 1 1 -42,42 42,42 0 0 1 42,-42 z"
     id="path939" />
  <path
     style="opacity:0.4;fill:none;stroke:#000000;stroke-width:60;stroke-miterlimit:4;stroke-dasharray:none;stroke-opacity:1"
     d="m 255.99999,30.215146 c -124.30951,0 -225.027447,100.790524 -225.027447,225.027444 0,124.23694 100.717937,225.02746 225.027447,225.02746 124.30953,0 225.02746,-100.71793 225.02746,-225.02746 0,-124.30951 -100.71793,-225.027444 -225.02746,-225.027444 z"
     id="path6" />
  <path
     d="M256 202a42 42 0 1 0-42-42 42 42 0 0 0 42 42zm44 134h-12V236a12 12 0 0 0-12-12h-64a12 12 0 0 0-12 12v24a12 12 0 0 0 12 12h12v64h-12a12 12 0 0 0-12 12v24a12 12 0 0 0 12 12h88a12 12 0 0 0 12-12v-24a12 12 0 0 0-12-12z"
     class="fa-primary"
     id="path8"
     style="fill:#7030a0;fill-opacity:1;stroke:none" />
</svg>
