<?xml version="1.0" encoding="UTF-8" standalone="no"?>
<svg
   viewBox="0 0 512 512"
   version="1.1"
   id="svg10"
   sodipodi:docname="key2.svg"
   inkscape:version="1.1 (c68e22c387, 2021-05-23)"
   xmlns:inkscape="http://www.inkscape.org/namespaces/inkscape"
   xmlns:sodipodi="http://sodipodi.sourceforge.net/DTD/sodipodi-0.dtd"
   xmlns="http://www.w3.org/2000/svg"
   xmlns:svg="http://www.w3.org/2000/svg">
  <sodipodi:namedview
     id="namedview12"
     pagecolor="#ffffff"
     bordercolor="#666666"
     borderopacity="1.0"
     inkscape:pageshadow="2"
     inkscape:pageopacity="0.0"
     inkscape:pagecheckerboard="true"
     showgrid="false"
     inkscape:showpageshadow="false"
     inkscape:zoom="1.3203125"
     inkscape:cx="256"
     inkscape:cy="255.6213"
     inkscape:window-width="1920"
     inkscape:window-height="1017"
     inkscape:window-x="1049"
     inkscape:window-y="2152"
     inkscape:window-maximized="1"
     inkscape:current-layer="svg10" />
  <!-- Font Awesome Pro 5.15.3 by @fontawesome - https://fontawesome.com License - https://fontawesome.com/license (Commercial License) -->
  <defs
     id="defs4">
    <style
       id="style2">.fa-secondary{opacity:.4}</style>
  </defs>
  <path
     d="M303.06 348.91l.1.09-24 27a24 24 0 0 1-17.94 8H224v40a24 24 0 0 1-24 24h-40v40a24 24 0 0 1-24 24H24a24 24 0 0 1-24-24v-78a24 24 0 0 1 7-17l161.83-161.83-.11-.35a176.24 176.24 0 0 0 134.34 118.09z"
     class="fa-secondary"
     id="path6" />
  <path
     d="M336 0a176 176 0 1 0 176 176A176 176 0 0 0 336 0zm48 176a48 48 0 1 1 48-48 48 48 0 0 1-48 48z"
     class="fa-primary"
     id="path8"
     style="fill:#7030a0;fill-opacity:1" />
</svg>
