<?xml version="1.0" encoding="UTF-8" standalone="no"?>
<svg
   viewBox="0 0 640 640"
   version="1.1"
   id="svg19"
   sodipodi:docname="Logo.svg"
   inkscape:version="1.1.1 (3bf5ae0d25, 2021-09-20)"
   inkscape:export-filename="C:\Users\alecm\OneDrive\Personal\Projects\CloudFiler\1.0 Product design\CloudFiler icons\cloud-upload-v2.png"
   inkscape:export-xdpi="19.125"
   inkscape:export-ydpi="19.125"
   width="640"
   height="640"
   xmlns:inkscape="http://www.inkscape.org/namespaces/inkscape"
   xmlns:sodipodi="http://sodipodi.sourceforge.net/DTD/sodipodi-0.dtd"
   xmlns:xlink="http://www.w3.org/1999/xlink"
   xmlns="http://www.w3.org/2000/svg"
   xmlns:svg="http://www.w3.org/2000/svg">
  <defs
     id="defs23" />
  <sodipodi:namedview
     id="namedview21"
     pagecolor="#ffffff"
     bordercolor="#666666"
     borderopacity="1.0"
     inkscape:pageshadow="2"
     inkscape:pageopacity="0.0"
     inkscape:pagecheckerboard="true"
     showgrid="false"
     inkscape:zoom="0.88125"
     inkscape:cx="184.96454"
     inkscape:cy="257.02128"
     inkscape:window-width="1694"
     inkscape:window-height="1203"
     inkscape:window-x="1693"
     inkscape:window-y="509"
     inkscape:window-maximized="0"
     inkscape:current-layer="svg19"
     inkscape:showpageshadow="false" />
  <path
     style="fill:#ffffff;fill-opacity:1;stroke:#808080;stroke-width:42.601;stroke-linecap:butt;stroke-linejoin:round;stroke-miterlimit:4;stroke-dasharray:none;stroke-opacity:1"
     sodipodi:type="inkscape:offset"
     inkscape:radius="0"
     inkscape:original="M 263.42969 99.318359 C 254.25489 99.182359 245.02977 99.861198 235.89844 101.38086 C 183.36415 110.1238 139.85629 145.85727 122.26562 194.71094 C 118.28145 205.776 114.40588 227.55858 114.39258 238.95703 L 114.38477 246.45508 L 105.96094 250.00195 C 86.682327 258.12172 66.010402 273.74402 52.882812 290.11328 C 32.737564 315.23309 22.860571 348.71557 26.707031 378.84375 C 33.685941 433.50757 75.012588 476.84964 131.4082 488.65234 L 131.41016 488.65234 C 163.70555 488.80619 223.63672 489.10156 223.63672 489.10156 L 394.53125 489.36328 C 472.81002 488.93148 528.08404 487.28007 542.52734 482.75781 C 561.94018 475.01573 585.5742 453.95433 596.72461 439.21875 C 607.87502 424.48317 610.60218 412.98989 612.88672 401.1543 C 615.50857 387.57112 614.90361 365.56549 611.55859 352.87891 C 601.7447 315.65793 571.09785 284.86553 532.14062 273.08008 C 526.42706 271.35159 521.54862 269.77777 521.29883 269.58203 C 521.04902 269.38626 521.9763 265.18072 523.35938 260.23633 C 526.71659 248.23601 526.71404 228.28162 523.35352 217.39844 C 517.18903 197.43286 504.928 181.18421 487.79297 170.26953 C 473.32897 161.05623 461.35969 157.19856 444.24805 156.23438 C 427.24046 155.27605 415.30151 157.35828 401.29102 163.72656 C 395.43717 166.38735 390.09391 168.5645 389.41797 168.5625 C 388.74203 168.5615 386.19777 165.5406 383.76367 161.84961 C 376.30575 150.54063 355.05604 130.70319 340.83789 121.77734 C 318.03467 107.46196 290.95411 99.726385 263.42969 99.318359 z "
     xlink:href="#path9502-1"
     id="path981"
     inkscape:href="#path9502-1"
     d="m 263.42969,99.615234 c -9.1748,-0.136 -18.39992,0.542836 -27.53125,2.062496 -52.53429,8.74294 -96.04215,44.47641 -113.63282,93.33008 -3.98417,11.06506 -7.85974,32.84765 -7.87304,44.2461 l -0.008,7.49804 -8.42383,3.54688 c -19.278613,8.11977 -39.950538,23.74207 -53.078128,40.11133 -20.145248,25.11981 -30.022241,58.60229 -26.175781,88.73046 6.97891,54.66382 48.305557,98.0059 104.701169,109.8086 h 0.002 c 32.29539,0.15385 92.22656,0.44922 92.22656,0.44922 l 170.89453,0.26172 c 78.27877,-0.4318 133.55279,-2.08321 147.99609,-6.60547 19.41284,-7.74208 43.04686,-28.80348 54.19727,-43.53907 11.15041,-14.73558 13.87757,-26.22886 16.16211,-38.06445 2.62185,-13.58318 2.01689,-35.58881 -1.32813,-48.27539 -9.81389,-37.22098 -40.46074,-68.01338 -79.41797,-79.79883 -5.71356,-1.72849 -10.592,-3.3023 -10.84179,-3.49804 -0.24981,-0.19577 0.67746,-4.40132 2.06055,-9.34571 3.35721,-12.00032 3.35466,-31.95471 -0.006,-42.83789 -6.16449,-19.96558 -18.42552,-36.21422 -35.56055,-47.1289 -14.464,-9.2133 -26.43328,-13.07098 -43.54492,-14.03516 -17.00759,-0.95833 -28.94654,1.12391 -42.95703,7.49219 -5.85385,2.66079 -11.19711,4.83793 -11.87305,4.83594 -0.67594,-0.001 -3.2202,-3.02191 -5.6543,-6.7129 -7.45792,-11.30898 -28.70763,-31.14641 -42.92578,-40.07226 -22.80322,-14.31538 -49.88378,-22.05096 -77.4082,-22.458986 z" />
  <path
     id="path9502-1"
     style="fill:none;fill-opacity:1;stroke:#808080;stroke-width:42.601;stroke-linecap:butt;stroke-linejoin:round;stroke-miterlimit:4;stroke-dasharray:none;stroke-opacity:1"
     d="m 263.42985,99.317523 c -9.1748,-0.136 -18.39992,0.542836 -27.53125,2.062497 -52.53429,8.74294 -96.04216,44.47641 -113.63282,93.33008 -3.98417,11.06506 -7.85974,32.84765 -7.87304,44.2461 l -0.008,7.49804 -8.42383,3.54688 c -19.27861,8.11977 -39.950538,23.74207 -53.078128,40.11133 -20.145249,25.11981 -30.022241,58.60228 -26.175781,88.73046 6.97891,54.66382 48.305554,98.0059 104.701169,109.8086 h 0.002 c 32.29539,0.15385 92.22656,0.44922 92.22656,0.44922 l 170.89453,0.26172 c 78.27877,-0.4318 133.55279,-2.08321 147.99609,-6.60547 19.41284,-7.74208 43.04686,-28.80349 54.19727,-43.53907 11.15041,-14.73558 13.87757,-26.22886 16.16211,-38.06445 2.62185,-13.58318 2.01689,-35.58881 -1.32813,-48.27539 -9.81389,-37.22098 -40.46074,-68.01338 -79.41797,-79.79883 -5.71356,-1.72849 -10.592,-3.3023 -10.84179,-3.49804 -0.24981,-0.19577 0.67747,-4.40132 2.06055,-9.34571 3.35721,-12.00032 3.35452,-31.95471 -0.006,-42.83789 -6.16449,-19.96558 -18.42552,-36.21422 -35.56055,-47.1289 -14.464,-9.2133 -26.43328,-13.07098 -43.54492,-14.03516 -17.00759,-0.95833 -28.94654,1.12391 -42.95703,7.49219 -5.85385,2.66079 -11.19711,4.83794 -11.87305,4.83594 -0.67594,-0.001 -3.2202,-3.02191 -5.6543,-6.7129 -7.45792,-11.30898 -28.70763,-31.14641 -42.92578,-40.07226 -22.80322,-14.31538 -49.88378,-22.050961 -77.4082,-22.458987 z" />
  <path
     style="fill:#ffffff;fill-opacity:1;stroke:none;stroke-width:14.7565;stroke-miterlimit:4;stroke-dasharray:none;stroke-opacity:1"
     sodipodi:type="inkscape:offset"
     inkscape:radius="37.67342"
     inkscape:original="M 311.02344 233.21875 C 303.33965 233.21875 304.30718 232.32799 233.88477 304.29102 C 185.08103 354.16244 166.12031 374.15484 165.34375 376.5625 C 164.7533 378.39308 164.45258 382.47347 164.67578 385.63086 C 165.14135 392.21677 166.59932 400.70763 173.0332 400.55273 L 176.43359 402.9375 L 219.30664 403.21484 L 262.17773 403.49219 L 262.17773 474.25586 C 262.17773 551.56809 261.99312 548.90001 267.79102 555.22656 C 273.60352 561.56904 274.72964 561.73828 311.02344 561.73828 C 340.7679 561.73828 344.2783 561.56565 347.78516 559.93555 C 352.66144 557.66888 357.52144 552.07593 358.8418 547.21094 C 359.50555 544.76532 359.85975 519.25982 359.86328 473.45312 L 359.86719 403.43359 L 401.39453 403.43359 C 428.38429 403.43359 443.87685 403.065 445.64648 402.38086 C 455.39515 398.61207 460.55757 384.5091 455.69141 374.93945 C 454.653 372.8974 424.27844 341.10345 387.25977 303.30859 C 317.80198 232.39386 318.69942 233.21875 311.02344 233.21875 z "
     xlink:href="#path3414-5"
     id="path842"
     inkscape:href="#path3414-5"
     d="m 311.02344,195.8418 c -1.19305,0 -13.69147,0.70547 -22.18555,4.93554 -8.49408,4.23008 -12.69565,8.34028 -18.38477,13.58204 -11.37822,10.48351 -28.28891,27.90349 -63.49414,63.8789 -24.45617,24.99121 -41.45457,42.51305 -52.68945,54.35938 -5.61744,5.92316 -9.76045,10.38203 -12.95703,13.99218 -1.59829,1.80508 -2.93442,3.34716 -4.41016,5.22266 -1.47573,1.8755 -2.78062,-0.88318 -7.41406,13.48242 h 0.002 c -4.46408,13.84 -2.94656,15.48002 -2.39453,23.28906 0.34754,4.91628 0.44822,11.57212 4.77735,21.89844 2.16456,5.16316 5.67878,11.77299 13.03515,17.92578 3.50567,2.9321 8.04049,5.37067 12.86914,7.14453 a 37.677187,37.677187 0 0 0 18.41211,5.35352 l 42.87305,0.27734 5.44141,0.0352 v 33.33398 c 0,38.62613 -0.19259,56.50953 0.72265,69.71094 0.45763,6.60071 0.97251,13.22159 4.65625,21.75 3.68374,8.52842 9.50915,14.28023 10.13477,14.96289 3.61226,3.94162 20.81724,15.69697 32.34765,17.4336 11.53042,1.73662 20.45275,1.29882 38.65821,1.29882 14.94511,0 23.21971,-10e-5 30.0664,-0.33593 6.8467,-0.33584 16.92651,-2.35238 22.57618,-4.97852 17.68075,-8.21865 26.00374,-16.64573 31.5332,-37.01953 2.13989,-7.88455 1.32674,-7.40369 1.45312,-9.16602 0.12639,-1.76232 0.20455,-3.45126 0.27735,-5.43554 0.14559,-3.96856 0.25165,-8.99787 0.33984,-15.36133 0.17638,-12.72692 0.26581,-30.66025 0.26758,-53.66016 l 0.002,-32.34765 h 3.85547 c 13.66638,0 24.47304,-0.0907 32.48047,-0.28125 4.00372,-0.0952 7.26169,-0.20825 10.22266,-0.39063 1.48048,-0.0912 2.85064,-0.18691 4.625,-0.39453 1.77435,-0.20762 2.19506,0.69223 10.50781,-2.52148 17.52966,-6.77689 27.32858,-20.16169 32.29687,-33.73438 4.9683,-13.57269 6.00808,-29.67409 -2.2539,-45.92187 a 37.677187,37.677187 0 0 0 -0.002,0 c -3.998,-7.86214 -4.09923,-6.45539 -4.90234,-7.44141 -0.80311,-0.98602 -1.4304,-1.70582 -2.11914,-2.48828 -1.37749,-1.56493 -2.93159,-3.26707 -4.83789,-5.32617 -3.8126,-4.11822 -8.94775,-9.55184 -15.20313,-16.09961 -12.51075,-13.09556 -29.43487,-30.57027 -48.03515,-49.56055 -34.72324,-35.45159 -51.40868,-52.62589 -62.70313,-63.00976 -5.64722,-5.19194 -9.86216,-9.29727 -18.34179,-13.49805 -8.47964,-4.20078 -20.86123,-4.89453 -22.10547,-4.89453 z" />
  <path
     id="path3414-5"
     style="fill:#7030a0;fill-opacity:1;stroke:none;stroke-width:14.7565;stroke-miterlimit:4;stroke-dasharray:none;stroke-opacity:1"
     d="m 311.0236,233.21791 c -7.68379,0 -6.71626,-0.89076 -77.13867,71.07227 -48.80374,49.87142 -67.76446,69.86383 -68.54102,72.27149 -0.59045,1.83058 -0.89117,5.91096 -0.66797,9.06835 0.46557,6.58591 1.92354,15.07678 8.35742,14.92188 l 3.40039,2.38477 42.87305,0.27734 42.87109,0.27734 v 70.76367 c 0,77.31223 -0.18461,74.64416 5.61329,80.97071 5.8125,6.34248 6.93862,6.51172 43.23242,6.51172 29.74446,0 33.25486,-0.17264 36.76172,-1.80274 4.87628,-2.26667 9.73628,-7.85962 11.05664,-12.72461 0.66375,-2.44562 1.01795,-27.95112 1.02148,-73.75781 l 0.004,-70.01953 h 41.52734 c 26.98976,0 42.48232,-0.3686 44.25195,-1.05274 9.74867,-3.76879 14.91109,-17.87175 10.04493,-27.4414 -1.03841,-2.04205 -31.41297,-33.836 -68.43164,-71.63086 -69.45779,-70.91473 -68.56035,-70.08985 -76.23633,-70.08985 z" />
</svg>
