<?xml version="1.0" encoding="UTF-8" standalone="no"?>
<svg
   viewBox="0 0 512 512"
   version="1.1"
   id="svg4"
   sodipodi:docname="minus-square-grey.svg"
   width="512"
   height="512"
   inkscape:version="1.1 (c68e22c387, 2021-05-23)"
   xmlns:inkscape="http://www.inkscape.org/namespaces/inkscape"
   xmlns:sodipodi="http://sodipodi.sourceforge.net/DTD/sodipodi-0.dtd"
   xmlns="http://www.w3.org/2000/svg"
   xmlns:svg="http://www.w3.org/2000/svg">
  <defs
     id="defs8" />
  <sodipodi:namedview
     id="namedview6"
     pagecolor="#ffffff"
     bordercolor="#666666"
     borderopacity="1.0"
     inkscape:pageshadow="2"
     inkscape:pageopacity="0.0"
     inkscape:pagecheckerboard="true"
     showgrid="false"
     inkscape:showpageshadow="false"
     inkscape:zoom="1.3203125"
     inkscape:cx="224.18935"
     inkscape:cy="256"
     inkscape:window-width="1754"
     inkscape:window-height="1104"
     inkscape:window-x="1290"
     inkscape:window-y="342"
     inkscape:window-maximized="0"
     inkscape:current-layer="svg4" />
  <path
     d="M 432,32 H 80 C 53.5,32 32,53.5 32,80 v 352 c 0,26.5 21.5,48 48,48 h 352 c 26.5,0 48,-21.5 48,-48 V 80 C 480,53.5 458.5,32 432,32 Z"
     id="path2"
     style="fill:#ffffff;stroke:#000000;stroke-opacity:1;opacity:0.4;stroke-width:60;stroke-miterlimit:4;stroke-dasharray:none" />
  <path
     d="m 124,296 c -6.6,0 -12,-5.4 -12,-12 v -56 c 0,-6.6 5.4,-12 12,-12 h 264 c 6.6,0 12,5.4 12,12 v 56 c 0,6.6 -5.4,12 -12,12 z"
     id="path827"
     style="fill:#7030a0;fill-opacity:1" />
</svg>
