<?xml version="1.0" encoding="UTF-8" standalone="no"?>
<svg
   viewBox="0 0 320 512"
   version="1.1"
   id="svg10"
   sodipodi:docname="mobile.svg"
   inkscape:version="1.1 (c68e22c387, 2021-05-23)"
   xmlns:inkscape="http://www.inkscape.org/namespaces/inkscape"
   xmlns:sodipodi="http://sodipodi.sourceforge.net/DTD/sodipodi-0.dtd"
   xmlns="http://www.w3.org/2000/svg"
   xmlns:svg="http://www.w3.org/2000/svg">
  <sodipodi:namedview
     id="namedview12"
     pagecolor="#ffffff"
     bordercolor="#666666"
     borderopacity="1.0"
     inkscape:pageshadow="2"
     inkscape:pageopacity="0.0"
     inkscape:pagecheckerboard="true"
     showgrid="false"
     inkscape:showpageshadow="false"
     inkscape:zoom="1.3203125"
     inkscape:cx="159.81065"
     inkscape:cy="255.6213"
     inkscape:window-width="2772"
     inkscape:window-height="1227"
     inkscape:window-x="832"
     inkscape:window-y="441"
     inkscape:window-maximized="0"
     inkscape:current-layer="svg10" />
  <!-- Font Awesome Pro 5.15.3 by @fontawesome - https://fontawesome.com License - https://fontawesome.com/license (Commercial License) -->
  <defs
     id="defs4">
    <style
       id="style2">.fa-secondary{opacity:.4}</style>
  </defs>
  <path
     d="M272 0H48A48 48 0 0 0 0 48v416a48 48 0 0 0 48 48h224a48 48 0 0 0 48-48V48a48 48 0 0 0-48-48zm-64 452a12 12 0 0 1-12 12h-72a12 12 0 0 1-12-12v-8a12 12 0 0 1 12-12h72a12 12 0 0 1 12 12zm64-80a12 12 0 0 1-12 12H60a12 12 0 0 1-12-12V60a12 12 0 0 1 12-12h200a12 12 0 0 1 12 12z"
     class="fa-secondary"
     id="path6" />
  <path
     d="M272 372a12 12 0 0 1-12 12H60a12 12 0 0 1-12-12V60a12 12 0 0 1 12-12h200a12 12 0 0 1 12 12z"
     class="fa-primary"
     id="path8"
     style="fill:#7030a0;fill-opacity:1" />
</svg>
