<?xml version="1.0" encoding="UTF-8" standalone="no"?>
<svg
   viewBox="0 0 448 512"
   version="1.1"
   id="svg10"
   sodipodi:docname="NewSearchWindow.svg"
   inkscape:version="1.1 (c68e22c387, 2021-05-23)"
   xmlns:inkscape="http://www.inkscape.org/namespaces/inkscape"
   xmlns:sodipodi="http://sodipodi.sourceforge.net/DTD/sodipodi-0.dtd"
   xmlns="http://www.w3.org/2000/svg"
   xmlns:svg="http://www.w3.org/2000/svg">
  <sodipodi:namedview
     id="namedview12"
     pagecolor="#ffffff"
     bordercolor="#666666"
     borderopacity="1.0"
     inkscape:pageshadow="2"
     inkscape:pageopacity="0.0"
     inkscape:pagecheckerboard="true"
     showgrid="false"
     inkscape:showpageshadow="false"
     inkscape:zoom="1.3203125"
     inkscape:cx="224.18935"
     inkscape:cy="255.6213"
     inkscape:window-width="1796"
     inkscape:window-height="995"
     inkscape:window-x="1355"
     inkscape:window-y="635"
     inkscape:window-maximized="0"
     inkscape:current-layer="svg10" />
  <!-- Font Awesome Pro 5.15.3 by @fontawesome - https://fontawesome.com License - https://fontawesome.com/license (Commercial License) -->
  <defs
     id="defs4">
    <style
       id="style2">.fa-secondary{opacity:.4}</style>
  </defs>
  <path
     d="M352 96V0H152a24 24 0 0 0-24 24v368a24 24 0 0 0 24 24h272a24 24 0 0 0 24-24V96z"
     class="fa-secondary"
     id="path6" />
  <path
     d="M 441,73 375,7 A 24,24 0 0 0 358,0 h -6 v 96 h 96 V 89.94 A 24,24 0 0 0 441,73 Z"
     id="path831"
     style="fill:#7030a0;fill-opacity:1" />
  <path
     d="M 96,392 V 96 H 24 A 24,24 0 0 0 0,120 v 368 a 24,24 0 0 0 24,24 h 272 a 24,24 0 0 0 24,-24 V 448 H 152 A 56.06,56.06 0 0 1 96,392 Z"
     id="path8"
     style="fill:#7030a0;fill-opacity:1" />
</svg>
