<?xml version="1.0" encoding="UTF-8" standalone="no"?>
<svg
   viewBox="0 0 512 512"
   version="1.1"
   id="svg10"
   sodipodi:docname="no-entry.svg"
   width="512"
   height="512"
   inkscape:version="1.1 (c68e22c387, 2021-05-23)"
   xmlns:inkscape="http://www.inkscape.org/namespaces/inkscape"
   xmlns:sodipodi="http://sodipodi.sourceforge.net/DTD/sodipodi-0.dtd"
   xmlns="http://www.w3.org/2000/svg"
   xmlns:svg="http://www.w3.org/2000/svg">
  <sodipodi:namedview
     id="namedview12"
     pagecolor="#ffffff"
     bordercolor="#666666"
     borderopacity="1.0"
     inkscape:pageshadow="2"
     inkscape:pageopacity="0.0"
     inkscape:pagecheckerboard="true"
     showgrid="false"
     inkscape:showpageshadow="false"
     inkscape:zoom="1.3203125"
     inkscape:cx="247.66864"
     inkscape:cy="255.6213"
     inkscape:window-width="2306"
     inkscape:window-height="1299"
     inkscape:window-x="1180"
     inkscape:window-y="473"
     inkscape:window-maximized="0"
     inkscape:current-layer="svg10" />
  <!-- Font Awesome Pro 5.15.3 by @fontawesome - https://fontawesome.com License - https://fontawesome.com/license (Commercial License) -->
  <defs
     id="defs4">
    <style
       id="style2">.fa-secondary{opacity:.4}</style>
  </defs>
  <g
     id="g903"
     transform="matrix(1.0322581,0,0,1.0322581,0,-8.2580648)">
    <path
       d="m 56,288 v -64 a 16,16 0 0 1 16,-16 h 352 a 16,16 0 0 1 16,16 v 64 a 16,16 0 0 1 -16,16 H 72 A 16,16 0 0 1 56,288 Z"
       class="fa-secondary"
       id="path6" />
    <path
       d="M 248,8 C 111,8 0,119 0,256 0,393 111,504 248,504 385,504 496,393 496,256 496,119 385,8 248,8 Z M 424,304 H 72 A 16,16 0 0 1 56,288 v -64 a 16,16 0 0 1 16,-16 h 352 a 16,16 0 0 1 16,16 v 64 a 16,16 0 0 1 -16,16 z"
       class="fa-primary"
       id="path8"
       style="fill:#7030a0;fill-opacity:1" />
  </g>
</svg>
