<?xml version="1.0" encoding="UTF-8" standalone="no"?>
<svg
   viewBox="0 0 576 512"
   version="1.1"
   id="svg10"
   sodipodi:docname="padlock-open.svg"
   inkscape:version="1.1 (c68e22c387, 2021-05-23)"
   xmlns:inkscape="http://www.inkscape.org/namespaces/inkscape"
   xmlns:sodipodi="http://sodipodi.sourceforge.net/DTD/sodipodi-0.dtd"
   xmlns="http://www.w3.org/2000/svg"
   xmlns:svg="http://www.w3.org/2000/svg">
  <sodipodi:namedview
     id="namedview12"
     pagecolor="#ffffff"
     bordercolor="#666666"
     borderopacity="1.0"
     inkscape:pageshadow="2"
     inkscape:pageopacity="0.0"
     inkscape:pagecheckerboard="true"
     showgrid="false"
     inkscape:showpageshadow="false"
     inkscape:zoom="1.3203125"
     inkscape:cx="288.18935"
     inkscape:cy="256"
     inkscape:window-width="2755"
     inkscape:window-height="1462"
     inkscape:window-x="731"
     inkscape:window-y="228"
     inkscape:window-maximized="0"
     inkscape:current-layer="svg10" />
  <!-- Font Awesome Pro 5.15.3 by @fontawesome - https://fontawesome.com License - https://fontawesome.com/license (Commercial License) -->
  <defs
     id="defs4">
    <style
       id="style2">.fa-secondary{opacity:.4}</style>
  </defs>
  <path
     d="M576 152v80a23.94 23.94 0 0 1-24 24h-32a23.94 23.94 0 0 1-24-24v-80a72.11 72.11 0 0 0-72.7-72c-39.6.4-71.3 33.3-71.3 72.9V224h-80v-70.5C272 69.5 339.5.3 423.5 0S576 68 576 152z"
     class="fa-secondary"
     id="path6" />
  <path
     d="M400 224H48a48 48 0 0 0-48 48v192a48 48 0 0 0 48 48h352a48 48 0 0 0 48-48V272a48 48 0 0 0-48-48zM264 392a40 40 0 0 1-80 0v-48a40 40 0 0 1 80 0z"
     class="fa-primary"
     id="path8"
     style="fill:#7030a0;fill-opacity:1" />
</svg>
