<?xml version="1.0" encoding="UTF-8" standalone="no"?>
<svg
   viewBox="0 0 512 512"
   version="1.1"
   id="svg10"
   sodipodi:docname="padlock.svg"
   width="512"
   height="512"
   inkscape:version="1.1 (c68e22c387, 2021-05-23)"
   xmlns:inkscape="http://www.inkscape.org/namespaces/inkscape"
   xmlns:sodipodi="http://sodipodi.sourceforge.net/DTD/sodipodi-0.dtd"
   xmlns="http://www.w3.org/2000/svg"
   xmlns:svg="http://www.w3.org/2000/svg">
  <sodipodi:namedview
     id="namedview12"
     pagecolor="#ffffff"
     bordercolor="#666666"
     borderopacity="1.0"
     inkscape:pageshadow="2"
     inkscape:pageopacity="0.0"
     inkscape:pagecheckerboard="true"
     showgrid="false"
     inkscape:showpageshadow="false"
     inkscape:zoom="1.3203125"
     inkscape:cx="224.18935"
     inkscape:cy="256"
     inkscape:window-width="2164"
     inkscape:window-height="1152"
     inkscape:window-x="1051"
     inkscape:window-y="494"
     inkscape:window-maximized="0"
     inkscape:current-layer="svg10" />
  <!-- Font Awesome Pro 5.15.3 by @fontawesome - https://fontawesome.com License - https://fontawesome.com/license (Commercial License) -->
  <defs
     id="defs4">
    <style
       id="style2">.fa-secondary{opacity:.4}</style>
  </defs>
  <path
     d="m 183.05325,225 h -80 v -72 c 0,-83.8 68.2,-152 152,-152 83.8,0 152,68.2 152,152 v 72 h -80 v -72 a 72,72 0 0 0 -144,0 z"
     class="fa-secondary"
     id="path6" />
  <path
     d="M 431.05325,225 H 79.053254 a 48,48 0 0 0 -48,48 v 192 a 48,48 0 0 0 48,48 H 431.05325 a 48,48 0 0 0 48,-48 V 273 a 48,48 0 0 0 -48,-48 z m -136,167 a 40,40 0 0 1 -80,0 v -48 a 40,40 0 0 1 80,0 z"
     class="fa-primary"
     id="path8"
     style="fill:#7030a0;fill-opacity:1" />
</svg>
