<?xml version="1.0" encoding="UTF-8" standalone="no"?>
<svg
   viewBox="0 0 512 512"
   version="1.1"
   id="svg10"
   sodipodi:docname="percent2.svg"
   width="512"
   height="512"
   inkscape:version="1.1 (c68e22c387, 2021-05-23)"
   xmlns:inkscape="http://www.inkscape.org/namespaces/inkscape"
   xmlns:sodipodi="http://sodipodi.sourceforge.net/DTD/sodipodi-0.dtd"
   xmlns="http://www.w3.org/2000/svg"
   xmlns:svg="http://www.w3.org/2000/svg">
  <sodipodi:namedview
     id="namedview12"
     pagecolor="#ffffff"
     bordercolor="#666666"
     borderopacity="1.0"
     inkscape:pageshadow="2"
     inkscape:pageopacity="0.0"
     inkscape:pagecheckerboard="true"
     showgrid="false"
     inkscape:showpageshadow="false"
     inkscape:zoom="1.3203125"
     inkscape:cx="224.18935"
     inkscape:cy="255.6213"
     inkscape:window-width="2438"
     inkscape:window-height="1095"
     inkscape:window-x="906"
     inkscape:window-y="622"
     inkscape:window-maximized="0"
     inkscape:current-layer="svg10" />
  <!-- Font Awesome Pro 5.15.3 by @fontawesome - https://fontawesome.com License - https://fontawesome.com/license (Commercial License) -->
  <defs
     id="defs4">
    <style
       id="style2">.fa-secondary{opacity:.4}</style>
  </defs>
  <path
     d="M 368,288 A 112,112 0 1 0 480,400 111.94,111.94 0 0 0 368,288 Z m 0,160 a 48,48 0 1 1 48,-48 48,48 0 0 1 -48,48 z M 144,0 A 112,112 0 1 0 256,112 111.94,111.94 0 0 0 144,0 Z m 0,160 a 48,48 0 1 1 48,-48 48,48 0 0 1 -48,48 z"
     class="fa-secondary"
     id="path6" />
  <path
     d="M 36.7,474.1 404.7,10.4 A 24,24 0 0 1 424.3,0.2 L 455.9,0.1 C 475.3,0 486.8,21.9 475.6,37.9 L 109.4,501.6 a 24,24 0 0 1 -19.6,10.2 l -33.4,0.1 C 36.9,511.9 25.5,490 36.7,474.1 Z"
     class="fa-primary"
     id="path8"
     style="fill:#7030a0;fill-opacity:1" />
</svg>
