<?xml version="1.0" encoding="UTF-8" standalone="no"?>
<svg
   viewBox="0 0 512 512"
   version="1.1"
   id="svg10"
   sodipodi:docname="play-circle.svg"
   inkscape:version="1.1.1 (3bf5ae0d25, 2021-09-20)"
   inkscape:export-filename="C:\Users\alecm\OneDrive - Dinamich Ltd\CloudFiler\2.0 Marketing\Graphics\Product Icons\Master icons\play-circle-256.png"
   inkscape:export-xdpi="49.6875"
   inkscape:export-ydpi="49.6875"
   xmlns:inkscape="http://www.inkscape.org/namespaces/inkscape"
   xmlns:sodipodi="http://sodipodi.sourceforge.net/DTD/sodipodi-0.dtd"
   xmlns="http://www.w3.org/2000/svg"
   xmlns:svg="http://www.w3.org/2000/svg">
  <sodipodi:namedview
     id="namedview12"
     pagecolor="#ffffff"
     bordercolor="#666666"
     borderopacity="1.0"
     inkscape:pageshadow="2"
     inkscape:pageopacity="0.0"
     inkscape:pagecheckerboard="true"
     showgrid="false"
     inkscape:showpageshadow="false"
     inkscape:zoom="1.2617188"
     inkscape:cx="96.29721"
     inkscape:cy="255.60371"
     inkscape:window-width="2705"
     inkscape:window-height="1313"
     inkscape:window-x="58"
     inkscape:window-y="530"
     inkscape:window-maximized="0"
     inkscape:current-layer="svg10" />
  <!-- Font Awesome Pro 5.15.3 by @fontawesome - https://fontawesome.com License - https://fontawesome.com/license (Commercial License) -->
  <defs
     id="defs4">
    <style
       id="style2">.fa-secondary{opacity:.4}</style>
  </defs>
  <path
     d="M256 8C119 8 8 119 8 256s111 248 248 248 248-111 248-248S393 8 256 8zm115.7 272l-176 101c-15.8 8.8-35.7-2.5-35.7-21V152c0-18.4 19.8-29.8 35.7-21l176 107c16.4 9.2 16.4 32.9 0 42z"
     class="fa-secondary"
     id="path6"
     style="fill:#000000;opacity:0.4"
     inkscape:export-filename="C:\Users\alecm\OneDrive - Dinamich Ltd\CloudFiler\2.0 Marketing\Graphics\Product Icons\Master icons\play-circle-256.png"
     inkscape:export-xdpi="48"
     inkscape:export-ydpi="48" />
  <path
     d="M371.7 280l-176 101c-15.8 8.8-35.7-2.5-35.7-21V152c0-18.4 19.8-29.8 35.7-21l176 107c16.4 9.2 16.4 32.9 0 42z"
     class="fa-primary"
     id="path8"
     style="fill:#ffffff" />
</svg>
