<?xml version="1.0" encoding="UTF-8" standalone="no"?>
<svg
   viewBox="0 0 512 512"
   version="1.1"
   id="svg4"
   sodipodi:docname="plus-square.svg"
   width="512"
   height="512"
   inkscape:version="1.1 (c68e22c387, 2021-05-23)"
   xmlns:inkscape="http://www.inkscape.org/namespaces/inkscape"
   xmlns:sodipodi="http://sodipodi.sourceforge.net/DTD/sodipodi-0.dtd"
   xmlns="http://www.w3.org/2000/svg"
   xmlns:svg="http://www.w3.org/2000/svg">
  <defs
     id="defs8" />
  <sodipodi:namedview
     id="namedview6"
     pagecolor="#ffffff"
     bordercolor="#666666"
     borderopacity="1.0"
     inkscape:pageshadow="2"
     inkscape:pageopacity="0.0"
     inkscape:pagecheckerboard="true"
     showgrid="false"
     inkscape:showpageshadow="false"
     inkscape:zoom="1.3203125"
     inkscape:cx="224.18935"
     inkscape:cy="256"
     inkscape:window-width="1878"
     inkscape:window-height="1150"
     inkscape:window-x="1254"
     inkscape:window-y="521"
     inkscape:window-maximized="0"
     inkscape:current-layer="svg4" />
  <path
     d="M 430,32 H 78 C 51.5,32 30,53.5 30,80 v 352 c 0,26.5 21.5,48 48,48 h 352 c 26.5,0 48,-21.5 48,-48 V 80 C 478,53.5 456.5,32 430,32 Z"
     id="path2"
     style="fill:#ffffff" />
  <path
     d="m 398,284 c 0,6.6 -5.4,12 -12,12 h -92 v 92 c 0,6.6 -5.4,12 -12,12 h -56 c -6.6,0 -12,-5.4 -12,-12 v -92 h -92 c -6.6,0 -12,-5.4 -12,-12 v -56 c 0,-6.6 5.4,-12 12,-12 h 92 v -92 c 0,-6.6 5.4,-12 12,-12 h 56 c 6.6,0 12,5.4 12,12 v 92 h 92 c 6.6,0 12,5.4 12,12 z"
     id="path827"
     style="fill:#7030a0;fill-opacity:1" />
</svg>
