<?xml version="1.0" encoding="UTF-8" standalone="no"?>
<svg
   viewBox="0 0 512 512"
   version="1.1"
   id="svg10"
   sodipodi:docname="refresh.svg"
   inkscape:version="1.1 (c68e22c387, 2021-05-23)"
   xmlns:inkscape="http://www.inkscape.org/namespaces/inkscape"
   xmlns:sodipodi="http://sodipodi.sourceforge.net/DTD/sodipodi-0.dtd"
   xmlns="http://www.w3.org/2000/svg"
   xmlns:svg="http://www.w3.org/2000/svg">
  <sodipodi:namedview
     id="namedview12"
     pagecolor="#ffffff"
     bordercolor="#666666"
     borderopacity="1.0"
     inkscape:pageshadow="2"
     inkscape:pageopacity="0.0"
     inkscape:pagecheckerboard="true"
     showgrid="false"
     inkscape:showpageshadow="false"
     inkscape:zoom="1.3203125"
     inkscape:cx="255.6213"
     inkscape:cy="256"
     inkscape:window-width="2303"
     inkscape:window-height="1252"
     inkscape:window-x="983"
     inkscape:window-y="383"
     inkscape:window-maximized="0"
     inkscape:current-layer="svg10" />
  <!-- Font Awesome Pro 5.15.3 by @fontawesome - https://fontawesome.com License - https://fontawesome.com/license (Commercial License) -->
  <defs
     id="defs4">
    <style
       id="style2">.fa-secondary{opacity:.4}</style>
  </defs>
  <path
     d="M494.84 183.65a159 159 0 0 1 17.16 72c0 88.23-71.77 160-160 160H170.07l34.51 32.42a24 24 0 0 1 .54 34.47l-10.78 10.77a24 24 0 0 1-33.94 0l-92.68-92.65a24 24 0 0 1 0-33.94L160.4 274a24 24 0 0 1 33.94 0l10.78 10.77a24 24 0 0 1-.54 34.47l-34.51 32.41H352a96 96 0 0 0 87.62-135.2 23.77 23.77 0 0 1 4.73-26.63l12.18-12.19a24 24 0 0 1 38.31 6.02z"
     class="fa-secondary"
     id="path6" />
  <path
     d="M67.65 321.52l-12.18 12.19a24 24 0 0 1-38.31-6A159 159 0 0 1 0 255.68c0-88.22 71.77-160 160-160h181.93l-34.51-32.41a24 24 0 0 1-.54-34.47L317.66 18a24 24 0 0 1 33.94 0l92.68 92.69a24 24 0 0 1 0 33.94l-92.68 92.71a24 24 0 0 1-33.94 0l-10.78-10.77a24 24 0 0 1 .54-34.47l34.51-32.42H160a96 96 0 0 0-87.62 135.21 23.78 23.78 0 0 1-4.73 26.63z"
     class="fa-primary"
     id="path8"
     style="fill:#7030a0;fill-opacity:1" />
</svg>
