<?xml version="1.0" encoding="UTF-8" standalone="no"?>
<svg
   viewBox="0 0 640 512"
   version="1.1"
   id="svg10"
   sodipodi:docname="robot.svg"
   inkscape:version="1.1 (c68e22c387, 2021-05-23)"
   inkscape:export-filename="C:\Users\alecm\OneDrive\Personal\Projects\CloudFiler\1.0 Product design\CloudFiler icons\Master icons\robot.png"
   inkscape:export-xdpi="19.125"
   inkscape:export-ydpi="19.125"
   xmlns:inkscape="http://www.inkscape.org/namespaces/inkscape"
   xmlns:sodipodi="http://sodipodi.sourceforge.net/DTD/sodipodi-0.dtd"
   xmlns="http://www.w3.org/2000/svg"
   xmlns:svg="http://www.w3.org/2000/svg">
  <sodipodi:namedview
     id="namedview12"
     pagecolor="#ffffff"
     bordercolor="#666666"
     borderopacity="1.0"
     inkscape:pageshadow="2"
     inkscape:pageopacity="0.0"
     inkscape:pagecheckerboard="0"
     showgrid="false"
     inkscape:zoom="1.3203125"
     inkscape:cx="288.56805"
     inkscape:cy="255.6213"
     inkscape:window-width="4096"
     inkscape:window-height="2097"
     inkscape:window-x="-8"
     inkscape:window-y="-8"
     inkscape:window-maximized="1"
     inkscape:current-layer="svg10" />
  <!-- Font Awesome Pro 5.15.3 by @fontawesome - https://fontawesome.com License - https://fontawesome.com/license (Commercial License) -->
  <defs
     id="defs4">
    <style
       id="style2">.fa-secondary{opacity:.4}</style>
  </defs>
  <path
     d="M288,416h64V384H288Zm-96,0h64V384H192ZM0,256V384a31.96166,31.96166,0,0,0,32,32H64V224H32A31.96166,31.96166,0,0,0,0,256ZM384,416h64V384H384ZM608,224H576V416h32a31.96166,31.96166,0,0,0,32-32V256A31.96166,31.96166,0,0,0,608,224ZM320,0a32.00033,32.00033,0,0,0-32,32V96h64V32A32.00033,32.00033,0,0,0,320,0Z"
     class="fa-secondary"
     id="path6" />
  <path
     d="M464,96H176a79.974,79.974,0,0,0-80,80V448a64.06328,64.06328,0,0,0,64,64H480a64.06328,64.06328,0,0,0,64-64V176A79.974,79.974,0,0,0,464,96ZM256,416H192V384h64ZM224,296a40,40,0,1,1,40-40A39.997,39.997,0,0,1,224,296ZM352,416H288V384h64Zm96,0H384V384h64ZM416,296a40,40,0,1,1,40-40A39.997,39.997,0,0,1,416,296Z"
     class="fa-primary"
     id="path8"
     style="fill:#7030a0;fill-opacity:1" />
</svg>
