<?xml version="1.0" encoding="UTF-8" standalone="no"?>
<svg
   viewBox="0 0 448 512"
   version="1.1"
   id="svg10"
   sodipodi:docname="save.svg"
   inkscape:version="1.1.1 (3bf5ae0d25, 2021-09-20)"
   xmlns:inkscape="http://www.inkscape.org/namespaces/inkscape"
   xmlns:sodipodi="http://sodipodi.sourceforge.net/DTD/sodipodi-0.dtd"
   xmlns="http://www.w3.org/2000/svg"
   xmlns:svg="http://www.w3.org/2000/svg">
  <sodipodi:namedview
     id="namedview12"
     pagecolor="#ffffff"
     bordercolor="#666666"
     borderopacity="1.0"
     inkscape:pageshadow="2"
     inkscape:pageopacity="0.0"
     inkscape:pagecheckerboard="true"
     showgrid="false"
     inkscape:showpageshadow="false"
     inkscape:zoom="1.2617188"
     inkscape:cx="141.0774"
     inkscape:cy="256"
     inkscape:window-width="2937"
     inkscape:window-height="1436"
     inkscape:window-x="328"
     inkscape:window-y="166"
     inkscape:window-maximized="0"
     inkscape:current-layer="svg10" />
  <!-- Font Awesome Pro 5.15.3 by @fontawesome - https://fontawesome.com License - https://fontawesome.com/license (Commercial License) -->
  <defs
     id="defs4">
    <style
       id="style2">.fa-secondary{opacity:.4}</style>
  </defs>
  <path
     d="M288 352a64 64 0 1 1-64-64 64 64 0 0 1 64 64z"
     class="fa-secondary"
     id="path6" />
  <path
     d="M433.94 129.94l-83.88-83.88A48 48 0 0 0 316.12 32H48A48 48 0 0 0 0 80v352a48 48 0 0 0 48 48h352a48 48 0 0 0 48-48V163.88a48 48 0 0 0-14.06-33.94zM224 416a64 64 0 1 1 64-64 64 64 0 0 1-64 64zm96-204a12 12 0 0 1-12 12H76a12 12 0 0 1-12-12V108a12 12 0 0 1 12-12h228.52a12 12 0 0 1 8.48 3.52l3.48 3.48a12 12 0 0 1 3.52 8.48z"
     class="fa-primary"
     id="path8"
     style="fill:#7030a0;fill-opacity:1" />
</svg>
