<?xml version="1.0" encoding="UTF-8" standalone="no"?>
<svg
   viewBox="0 0 512 512"
   version="1.1"
   id="svg10"
   sodipodi:docname="search.svg"
   inkscape:version="1.1 (c68e22c387, 2021-05-23)"
   xmlns:inkscape="http://www.inkscape.org/namespaces/inkscape"
   xmlns:sodipodi="http://sodipodi.sourceforge.net/DTD/sodipodi-0.dtd"
   xmlns="http://www.w3.org/2000/svg"
   xmlns:svg="http://www.w3.org/2000/svg">
  <sodipodi:namedview
     id="namedview12"
     pagecolor="#ffffff"
     bordercolor="#666666"
     borderopacity="1.0"
     inkscape:pageshadow="2"
     inkscape:pageopacity="0.0"
     inkscape:pagecheckerboard="true"
     showgrid="false"
     inkscape:zoom="1.3203125"
     inkscape:cx="255.6213"
     inkscape:cy="256"
     inkscape:window-width="2117"
     inkscape:window-height="1388"
     inkscape:window-x="379"
     inkscape:window-y="495"
     inkscape:window-maximized="0"
     inkscape:current-layer="svg10"
     inkscape:showpageshadow="false" />
  <!-- Font Awesome Pro 5.15.3 by @fontawesome - https://fontawesome.com License - https://fontawesome.com/license (Commercial License) -->
  <defs
     id="defs4">
    <style
       id="style2">.fa-secondary{opacity:.4}</style>
  </defs>
  <path
     d="M208 80a128 128 0 1 1-90.51 37.49A127.15 127.15 0 0 1 208 80m0-80C93.12 0 0 93.12 0 208s93.12 208 208 208 208-93.12 208-208S322.88 0 208 0z"
     class="fa-secondary"
     id="path6"
     style="fill:#000000;opacity:0.4" />
  <path
     d="M504.9 476.7L476.6 505a23.9 23.9 0 0 1-33.9 0L343 405.3a24 24 0 0 1-7-17V372l36-36h16.3a24 24 0 0 1 17 7l99.7 99.7a24.11 24.11 0 0 1-.1 34z"
     class="fa-primary"
     id="path8"
     style="fill:#7030a0;fill-opacity:1" />
</svg>
