<?xml version="1.0" encoding="UTF-8" standalone="no"?>
<!-- Generator: Adobe Illustrator 23.0.0, SVG Export Plug-In . SVG Version: 6.00 Build 0)  -->

<svg
   version="1.1"
   id="Layer_1"
   x="0px"
   y="0px"
   viewBox="0 0 530 498.9"
   xml:space="preserve"
   sodipodi:docname="sharepoint.svg"
   width="530"
   height="498.89999"
   inkscape:version="1.1.1 (3bf5ae0d25, 2021-09-20)"
   xmlns:inkscape="http://www.inkscape.org/namespaces/inkscape"
   xmlns:sodipodi="http://sodipodi.sourceforge.net/DTD/sodipodi-0.dtd"
   xmlns="http://www.w3.org/2000/svg"
   xmlns:svg="http://www.w3.org/2000/svg"><defs
   id="defs9" /><sodipodi:namedview
   id="namedview7"
   pagecolor="#ffffff"
   bordercolor="#666666"
   borderopacity="1.0"
   inkscape:pageshadow="2"
   inkscape:pageopacity="0.0"
   inkscape:pagecheckerboard="true"
   showgrid="false"
   inkscape:showpageshadow="false"
   inkscape:zoom="1.2037786"
   inkscape:cx="592.71697"
   inkscape:cy="221.38623"
   inkscape:window-width="4096"
   inkscape:window-height="2089"
   inkscape:window-x="-18"
   inkscape:window-y="-18"
   inkscape:window-maximized="1"
   inkscape:current-layer="g960" />
<style
   type="text/css"
   id="style2">
	.st0{fill:#0072C6;}
</style>
<g
   id="g960"
   style="display:inline"><path
     class="st0"
     d="M 0,52.1 291.2,0 c 0.1,166.3 0,332.6 0,498.9 C 194.2,481.7 97.2,464.2 0,447 Z m 97,112.6 c -11.9,14.1 -15.6,33.6 -13.4,51.5 1.8,15.6 10.5,29.9 22.3,39.8 10.8,9.2 24.6,14.8 34.3,25.6 7.3,8.1 9.1,21.6 1.8,30.3 -5.8,7 -15.8,7.5 -24,6.1 -13.8,-2 -25.5,-10.5 -34.6,-20.8 l 0.1,43.1 c 13.4,10.2 30.7,13.8 47.2,13.7 11.7,-0.3 23.6,-3 33.1,-10.1 11.9,-8.7 18.8,-22.9 20.5,-37.3 2.4,-16.8 -0.4,-34.9 -10.8,-48.7 -9.1,-11.5 -21.3,-19.9 -33.7,-27.3 -6.7,-4.1 -13.4,-8.5 -17.9,-15.1 -5.3,-9 -5.1,-21.8 2.7,-29.2 6.5,-6.3 16.4,-6.8 24.9,-5.8 10.4,1.1 20.2,5.8 28.3,12.2 v -42.8 c -13.5,-5.5 -28.5,-6.1 -42.8,-5 -14.5,1.9 -28.7,8.5 -38,19.8 z M 319.4,83.6 c 10,-9.8 23.9,-15.8 38,-14.5 20.1,1.1 37.8,16.8 42.8,36.1 2,7.3 2.1,14.9 0.9,22.3 32.4,13.4 58.8,40.7 71.3,73.5 14.2,-2.7 29.6,1.4 40.3,11.2 16.9,14.5 21.5,40.8 11.2,60.6 -9.2,18.6 -31.2,29.7 -51.6,25.5 -12.5,32.7 -38.6,60 -71,73.3 2.8,16.1 -2.1,33.4 -13.8,45 -12.1,12.5 -31.6,17.1 -48.1,11.5 -7.5,-2.6 -14.5,-6.8 -19.8,-12.8 v -68.7 c 9.4,-9.8 22.8,-15.8 36.4,-15.1 12.9,0.3 24.9,6.8 33.6,15.9 27.3,-10.8 49.2,-33.7 59.2,-61.3 -8.1,-8.4 -13.9,-19.2 -15.1,-30.9 -2,-15.5 4.3,-31.2 15.1,-42.1 -10,-27.7 -32,-50.8 -59.5,-61.6 -7.8,9 -19.1,14.9 -30.9,16.1 -14.4,1.6 -28.9,-4.6 -39,-14.8 z"
     id="path4"
     sodipodi:nodetypes="ccccccccccccccccccccccccccccccccccccccccccccccc"
     style="display:inline;fill:#7030a0;fill-opacity:1"
     inkscape:export-filename="C:\Users\alecm\OneDrive - Dinamich Ltd\CloudFiler\2.0 Marketing\Graphics\Product Icons\Master icons\sharepoint-128.png"
     inkscape:export-xdpi="23.184906"
     inkscape:export-ydpi="23.184906" /></g>
</svg>
