<?xml version="1.0" encoding="UTF-8" standalone="no"?>
<svg
   viewBox="0 0 512 512"
   version="1.1"
   id="svg10"
   sodipodi:docname="sign-out-alt.svg"
   inkscape:version="1.1.1 (3bf5ae0d25, 2021-09-20)"
   xmlns:inkscape="http://www.inkscape.org/namespaces/inkscape"
   xmlns:sodipodi="http://sodipodi.sourceforge.net/DTD/sodipodi-0.dtd"
   xmlns="http://www.w3.org/2000/svg"
   xmlns:svg="http://www.w3.org/2000/svg">
  <sodipodi:namedview
     id="namedview12"
     pagecolor="#ffffff"
     bordercolor="#666666"
     borderopacity="1.0"
     inkscape:pageshadow="2"
     inkscape:pageopacity="0.0"
     inkscape:pagecheckerboard="true"
     showgrid="false"
     inkscape:zoom="1.2617188"
     inkscape:cx="217.56037"
     inkscape:cy="255.60372"
     inkscape:window-width="2714"
     inkscape:window-height="1553"
     inkscape:window-x="788"
     inkscape:window-y="217"
     inkscape:window-maximized="0"
     inkscape:current-layer="svg10" />
  <!-- Font Awesome Pro 5.15.3 by @fontawesome - https://fontawesome.com License - https://fontawesome.com/license (Commercial License) -->
  <defs
     id="defs4">
    <style
       id="style2">.fa-secondary{opacity:.4}</style>
  </defs>
  <path
     d="M64 160v192a32 32 0 0 0 32 32h84a12 12 0 0 1 12 12v40a12 12 0 0 1-12 12H96a96 96 0 0 1-96-96V160a96 96 0 0 1 96-96h84a12 12 0 0 1 12 12v40a12 12 0 0 1-12 12H96a32 32 0 0 0-32 32z"
     class="fa-secondary"
     id="path6" />
  <path
     d="M288 424v-96H152a23.94 23.94 0 0 1-24-24v-96a23.94 23.94 0 0 1 24-24h136V88c0-21.4 25.9-32 41-17l168 168a24.2 24.2 0 0 1 0 34L329 441c-15 15-41 4.52-41-17z"
     class="fa-primary"
     id="path8"
     style="fill:#7030a0;fill-opacity:1" />
</svg>
