<?xml version="1.0" encoding="UTF-8" standalone="no"?>
<svg
   viewBox="0 0 512 512"
   version="1.1"
   id="svg10"
   sodipodi:docname="stopwatch.svg"
   width="512"
   height="512"
   inkscape:version="1.1 (c68e22c387, 2021-05-23)"
   xmlns:inkscape="http://www.inkscape.org/namespaces/inkscape"
   xmlns:sodipodi="http://sodipodi.sourceforge.net/DTD/sodipodi-0.dtd"
   xmlns="http://www.w3.org/2000/svg"
   xmlns:svg="http://www.w3.org/2000/svg">
  <sodipodi:namedview
     id="namedview12"
     pagecolor="#ffffff"
     bordercolor="#666666"
     borderopacity="1.0"
     inkscape:pageshadow="2"
     inkscape:pageopacity="0.0"
     inkscape:pagecheckerboard="true"
     showgrid="false"
     inkscape:showpageshadow="false"
     inkscape:zoom="1.3203125"
     inkscape:cx="223.81065"
     inkscape:cy="256"
     inkscape:window-width="2547"
     inkscape:window-height="1314"
     inkscape:window-x="1136"
     inkscape:window-y="454"
     inkscape:window-maximized="0"
     inkscape:current-layer="svg10" />
  <!-- Font Awesome Pro 5.15.3 by @fontawesome - https://fontawesome.com License - https://fontawesome.com/license (Commercial License) -->
  <defs
     id="defs4">
    <style
       id="style2">.fa-secondary{opacity:.4}</style>
  </defs>
  <path
     d="M 256,96 C 141.12,96 48,189.12 48,304 48,418.88 141.12,512 256,512 370.88,512 464,418.88 464,304 464,189.12 370.88,96 256,96 Z m 32,240 a 16,16 0 0 1 -16,16 H 240 A 16,16 0 0 1 224,336 V 208.5 a 16,16 0 0 1 16,-16 h 32 a 16,16 0 0 1 16,16 z"
     class="fa-secondary"
     id="path6" />
  <path
     d="m 272,192.5 h -32 a 16,16 0 0 0 -16,16 V 336 a 16,16 0 0 0 16,16 h 32 a 16,16 0 0 0 16,-16 V 208.5 a 16,16 0 0 0 -16,-16 z m 188.53,-48.57 -28.3,-28.3 a 12,12 0 0 0 -17,0 l -27.45,27.45 a 209.14,209.14 0 0 1 42.8,47.8 l 0.55,-0.55 29.4,-29.4 a 12,12 0 0 0 0,-17 z M 312,0 H 200 a 16,16 0 0 0 -16,16 v 32 a 16,16 0 0 0 16,16 h 24 v 34.45 a 210,210 0 0 1 64,0 V 64 h 24 A 16,16 0 0 0 328,48 V 16 A 16,16 0 0 0 312,0 Z"
     class="fa-primary"
     id="path8"
     style="fill:#7030a0;fill-opacity:1" />
</svg>
