<?xml version="1.0" encoding="UTF-8" standalone="no"?>
<svg
   viewBox="0 0 512 512"
   version="1.1"
   id="svg10"
   sodipodi:docname="tablet.svg"
   width="512"
   height="512"
   inkscape:version="1.1 (c68e22c387, 2021-05-23)"
   xmlns:inkscape="http://www.inkscape.org/namespaces/inkscape"
   xmlns:sodipodi="http://sodipodi.sourceforge.net/DTD/sodipodi-0.dtd"
   xmlns="http://www.w3.org/2000/svg"
   xmlns:svg="http://www.w3.org/2000/svg">
  <sodipodi:namedview
     id="namedview12"
     pagecolor="#ffffff"
     bordercolor="#666666"
     borderopacity="1.0"
     inkscape:pageshadow="2"
     inkscape:pageopacity="0.0"
     inkscape:pagecheckerboard="true"
     showgrid="false"
     inkscape:showpageshadow="false"
     inkscape:zoom="1.3203125"
     inkscape:cx="223.81065"
     inkscape:cy="255.6213"
     inkscape:window-width="2741"
     inkscape:window-height="1331"
     inkscape:window-x="510"
     inkscape:window-y="328"
     inkscape:window-maximized="0"
     inkscape:current-layer="svg10" />
  <!-- Font Awesome Pro 5.15.3 by @fontawesome - https://fontawesome.com License - https://fontawesome.com/license (Commercial License) -->
  <defs
     id="defs4">
    <style
       id="style2">.fa-secondary{opacity:.4}</style>
  </defs>
  <path
     d="M 432,0 H 80 A 48,48 0 0 0 32,48 v 416 a 48,48 0 0 0 48,48 h 352 a 48,48 0 0 0 48,-48 V 48 A 48,48 0 0 0 432,0 Z M 320,452 a 12,12 0 0 1 -12,12 H 204 a 12,12 0 0 1 -12,-12 v -8 a 12,12 0 0 1 12,-12 h 104 a 12,12 0 0 1 12,12 z m 112,-80 a 12,12 0 0 1 -12,12 H 92 A 12,12 0 0 1 80,372 V 60 A 12,12 0 0 1 92,48 h 328 a 12,12 0 0 1 12,12 z"
     class="fa-secondary"
     id="path6" />
  <path
     d="M 80,60 A 12,12 0 0 1 92,48 h 328 a 12,12 0 0 1 12,12 v 312 a 12,12 0 0 1 -12,12 H 92 A 12,12 0 0 1 80,372 Z"
     class="fa-primary"
     id="path8"
     style="fill:#7030a0;fill-opacity:1" />
</svg>
