<?xml version="1.0" encoding="UTF-8" standalone="no"?>
<svg
   viewBox="0 0 512 512"
   version="1.1"
   id="svg8"
   sodipodi:docname="tag.svg"
   inkscape:version="1.1.1 (3bf5ae0d25, 2021-09-20)"
   xmlns:inkscape="http://www.inkscape.org/namespaces/inkscape"
   xmlns:sodipodi="http://sodipodi.sourceforge.net/DTD/sodipodi-0.dtd"
   xmlns="http://www.w3.org/2000/svg"
   xmlns:svg="http://www.w3.org/2000/svg">
  <sodipodi:namedview
     id="namedview10"
     pagecolor="#ffffff"
     bordercolor="#666666"
     borderopacity="1.0"
     inkscape:pageshadow="2"
     inkscape:pageopacity="0.0"
     inkscape:pagecheckerboard="true"
     showgrid="false"
     inkscape:showpageshadow="false"
     inkscape:zoom="1.2617188"
     inkscape:cx="105.80805"
     inkscape:cy="255.99999"
     inkscape:window-width="2711"
     inkscape:window-height="1224"
     inkscape:window-x="1191"
     inkscape:window-y="738"
     inkscape:window-maximized="0"
     inkscape:current-layer="svg8" />
  <!-- Font Awesome Pro 5.15.3 by @fontawesome - https://fontawesome.com License - https://fontawesome.com/license (Commercial License) -->
  <defs
     id="defs4">
    <style
       id="style2">.fa-secondary{opacity:.4}</style>
    <style
       id="style822">.fa-secondary{opacity:.4}</style>
  </defs>
  <path
     d="M497.94 225.94L286.06 14.06A48 48 0 0 0 252.12 0H48A48 48 0 0 0 0 48v204.12a48 48 0 0 0 14.06 33.94l211.88 211.88a48 48 0 0 0 67.88 0l204.12-204.12a48 48 0 0 0 0-67.88zM112 160a48 48 0 1 1 48-48 48 48 0 0 1-48 48z"
     class="fa-secondary"
     id="path6" />
  <path
     d="m 405.90537,313.35233 -5.36637,4.03069 c -1.421,1.06731 -4.34493,0.10574 -6.77161,-2.07767 -11.2409,-10.12635 -37.16577,-21.76027 -48.6069,-28.71988 -11.89466,-7.23166 -23.13932,-14.05606 -32.8127,-23.56883 -7.66263,-7.53538 -12.21957,-14.48137 -13.56837,-20.67924 -2.00544,-9.19234 3.04956,-13.0363 8.4119,-16.02709 -22.89211,-9.43443 -71.59979,-25.87181 -90.12143,-31.84925 a 12.110889,6.5087982 40.9716 0 1 -7.70261,-4.8519 c -7.33655,-7.21474 -5.40416,-13.14356 -0.73115,-13.44859 l 67.74198,-4.599 c 5.50062,-0.36108 2.60081,-8.69313 -4.35489,-12.14071 l -22.2632,-10.61375 a 6.0918192,3.273948 40.9716 0 1 -5.18594,-6.52067 l -0.15989,-7.98637 a 6.1569108,3.3089305 40.9716 0 1 5.02607,-1.46568 l 21.08649,10.03653 c 28.92844,14.32664 39.00602,46.15846 18.05688,47.56573 l -28.61282,1.93198 c 45.50371,15.40336 60.05053,22.95237 67.12157,29.47105 15.30006,14.1471 0.51679,20.25501 -1.11953,20.96562 -7.24531,3.22684 -9.02971,6.16955 -2.88875,12.20854 5.95077,5.85196 14.66015,11.14007 24.75734,17.27103 12.97107,7.88422 41.61096,21.20218 56.2714,34.6043 2.56316,2.34954 3.37634,5.38195 1.79253,6.46316 z"
     class="fa-secondary"
     id="path826"
     style="opacity:1;fill:#7030a0;fill-opacity:1;stroke-width:0.280698"
     inkscape:transform-center-x="8.3477881"
     inkscape:transform-center-y="1.4075119e-06" />
  <path
     d="m 265.27615,329.40002 2.78652,-0.81883 c 0.73788,-0.21688 0.3296,-1.39686 -0.85452,-2.6982 -5.4925,-6.03091 -11.00902,-17.21602 -14.55722,-22.57643 -3.68652,-5.57203 -7.16423,-10.83675 -12.37797,-16.21223 -4.13001,-4.2581 -8.08985,-7.3632 -11.78898,-9.24491 -5.48602,-2.79246 -8.13963,-2.03208 -10.29146,-0.97286 -4.35958,-9.6818 -11.41696,-29.43662 -13.934,-36.88517 a 6.8065949,2.47573 41.042232 0 0 -2.49034,-3.64752 c -3.95426,-4.07691 -7.68937,-4.82265 -8.16053,-3.36475 l -6.93831,21.09286 c -0.55585,1.71559 -5.46243,-1.16951 -7.14153,-4.24629 l -5.11747,-9.75012 a 3.4237409,1.2453009 41.042232 0 0 -3.662,-3.21205 l -4.86281,-1.90843 a 3.4603237,1.258607 41.042231 0 0 -1.20083,1.30364 l 4.8371,9.23099 c 6.97616,12.79356 25.78237,23.4884 27.9189,16.96197 l 2.92416,-8.91165 c 6.62197,18.46635 10.34033,24.97979 13.88609,28.80807 7.69799,8.29328 12.3263,4.87649 12.85966,4.50633 2.41072,-1.62038 4.31495,-1.52021 7.6248,1.89231 3.20733,3.30685 5.9024,7.3851 9.02702,12.11325 4.01899,6.07586 10.39736,18.54057 17.67982,26.45144 1.27712,1.38461 3.07763,2.35541 3.83391,2.08855 z"
     class="fa-secondary"
     id="path826-1"
     style="opacity:0.994;fill:#7030a0;fill-opacity:1;stroke-width:0.129783"
     inkscape:transform-center-x="0.54567567"
     inkscape:transform-center-y="2.0935506" />
</svg>
