<?xml version="1.0" encoding="UTF-8" standalone="no"?>
<svg
   viewBox="0 0 512 512"
   version="1.1"
   id="svg10"
   sodipodi:docname="thumbtack-out.svg"
   width="512"
   height="512"
   inkscape:version="1.1 (c68e22c387, 2021-05-23)"
   xmlns:inkscape="http://www.inkscape.org/namespaces/inkscape"
   xmlns:sodipodi="http://sodipodi.sourceforge.net/DTD/sodipodi-0.dtd"
   xmlns="http://www.w3.org/2000/svg"
   xmlns:svg="http://www.w3.org/2000/svg">
  <sodipodi:namedview
     id="namedview12"
     pagecolor="#ffffff"
     bordercolor="#666666"
     borderopacity="1.0"
     inkscape:pageshadow="2"
     inkscape:pageopacity="0.0"
     inkscape:pagecheckerboard="true"
     showgrid="false"
     inkscape:showpageshadow="false"
     inkscape:zoom="1.3203125"
     inkscape:cx="192"
     inkscape:cy="256"
     inkscape:window-width="2371"
     inkscape:window-height="1268"
     inkscape:window-x="757"
     inkscape:window-y="488"
     inkscape:window-maximized="0"
     inkscape:current-layer="g1237" />
  <!-- Font Awesome Pro 5.15.3 by @fontawesome - https://fontawesome.com License - https://fontawesome.com/license (Commercial License) -->
  <defs
     id="defs4">
    <style
       id="style2">.fa-secondary{opacity:.4}</style>
  </defs>
  <g
     id="g1237">
    <path
       d="m 184.00123,448.00123 c -13.25483,0 -24,-10.74517 -24,-24 0,-336.000004 0,-63.84884 0,-336.000004 0,-13.254834 10.74517,-24 24,-24 50.74,0 91.18,37.470004 113.73,86.000004 l 118.27,12.21 v -42.21 c 0,-13.25484 10.74516,-24.000004 24,-24.000004 h 48 c 13.25483,0 24,10.745164 24,24.000004 v 272 c 0,13.25483 -10.74517,24 -24,24 h -48 c -13.25484,0 -24,-10.74517 -24,-24 v -42.21 l -118.27,12.21 c -22.31,48 -62.55,86 -113.73,86 z"
       id="path6"
       sodipodi:nodetypes="sccsccssssssssccs"
       style="opacity:0.4" />
    <path
       id="path8"
       style="stroke-width:0.725478;fill:#7030a0;fill-opacity:1"
       class="fa-primary"
       d="M 160.00123,224.00123 H 29.473886 a 4.2105447,8 0 0 0 -1.87891,0.83984 l -25.26367,24 a 4.2105447,8 0 0 0 0,14.32032 l 25.26367,24 a 4.2105447,8 0 0 0 1.87891,0.83984 H 160.00123 Z" />
  </g>
</svg>
