<?xml version="1.0" encoding="UTF-8" standalone="no"?>
<svg
   viewBox="0 0 384 512"
   version="1.1"
   id="svg10"
   sodipodi:docname="traffic-light-stop.svg"
   inkscape:version="1.1 (c68e22c387, 2021-05-23)"
   inkscape:export-filename="C:\Users\alecm\OneDrive\Personal\Projects\CloudFiler\1.0 Product design\CloudFiler icons\Master icons\traffic-light-stop.png"
   inkscape:export-xdpi="19.125"
   inkscape:export-ydpi="19.125"
   xmlns:inkscape="http://www.inkscape.org/namespaces/inkscape"
   xmlns:sodipodi="http://sodipodi.sourceforge.net/DTD/sodipodi-0.dtd"
   xmlns="http://www.w3.org/2000/svg"
   xmlns:svg="http://www.w3.org/2000/svg">
  <sodipodi:namedview
     id="namedview12"
     pagecolor="#ffffff"
     bordercolor="#666666"
     borderopacity="1.0"
     inkscape:pageshadow="2"
     inkscape:pageopacity="0.0"
     inkscape:pagecheckerboard="0"
     showgrid="false"
     inkscape:zoom="1.3203125"
     inkscape:cx="160.56805"
     inkscape:cy="255.6213"
     inkscape:window-width="4096"
     inkscape:window-height="2097"
     inkscape:window-x="-8"
     inkscape:window-y="-8"
     inkscape:window-maximized="1"
     inkscape:current-layer="svg10" />
  <!-- Font Awesome Pro 5.15.3 by @fontawesome - https://fontawesome.com License - https://fontawesome.com/license (Commercial License) -->
  <defs
     id="defs4">
    <style
       id="style2">.fa-secondary{opacity:.4}</style>
  </defs>
  <path
     d="M240 112a48 48 0 1 1-48-48 48 48 0 0 1 48 48z"
     class="fa-secondary"
     id="path6" />
  <path
     d="M384 192h-64v-37.88c37.2-13.22 64-48.38 64-90.12h-64V32a32 32 0 0 0-32-32H96a32 32 0 0 0-32 32v32H0c0 41.74 26.8 76.9 64 90.12V192H0c0 41.74 26.8 76.9 64 90.12V320H0c0 42.79 28.19 78.61 66.86 91v-.15a128 128 0 0 0 250.34 0v.15c38.61-12.4 66.8-48.22 66.8-91h-64v-37.88c37.2-13.22 64-48.38 64-90.12zM192 416a48 48 0 1 1 48-48 48 48 0 0 1-48 48zm0-128a48 48 0 1 1 48-48 48 48 0 0 1-48 48zm0-128a48 48 0 1 1 48-48 48 48 0 0 1-48 48z"
     class="fa-primary"
     id="path8"
     style="fill:#7030a0;fill-opacity:1" />
</svg>
