<?xml version="1.0" encoding="UTF-8" standalone="no"?>
<svg
   viewBox="0 0 512 512"
   version="1.1"
   id="svg10"
   sodipodi:docname="tram.svg"
   inkscape:version="1.1.1 (3bf5ae0d25, 2021-09-20)"
   xmlns:inkscape="http://www.inkscape.org/namespaces/inkscape"
   xmlns:sodipodi="http://sodipodi.sourceforge.net/DTD/sodipodi-0.dtd"
   xmlns="http://www.w3.org/2000/svg"
   xmlns:svg="http://www.w3.org/2000/svg">
  <sodipodi:namedview
     id="namedview12"
     pagecolor="#ffffff"
     bordercolor="#666666"
     borderopacity="1.0"
     inkscape:pageshadow="2"
     inkscape:pageopacity="0.0"
     inkscape:pagecheckerboard="true"
     showgrid="false"
     inkscape:showpageshadow="false"
     inkscape:zoom="1.2617188"
     inkscape:cx="173.17647"
     inkscape:cy="255.60372"
     inkscape:window-width="4096"
     inkscape:window-height="2089"
     inkscape:window-x="-18"
     inkscape:window-y="-18"
     inkscape:window-maximized="1"
     inkscape:current-layer="svg10" />
  <!-- Font Awesome Pro 5.15.3 by @fontawesome - https://fontawesome.com License - https://fontawesome.com/license (Commercial License) -->
  <defs
     id="defs4">
    <style
       id="style2">.fa-secondary{opacity:.4}</style>
  </defs>
  <path
     d="M511.45 51.9a15.91 15.91 0 0 0-19.6-11.3l-480 128A16 16 0 0 0 16 200a18.41 18.41 0 0 0 4.1-.5l480-128a16.1 16.1 0 0 0 11.35-19.6zM80 384h96v-96H80zm256 0h96v-96h-96zm-128 0h96v-96h-96z"
     class="fa-secondary"
     id="path6" />
  <path
     d="M192 96a32 32 0 1 0-32-32 32 32 0 0 0 32 32zm96-32a32 32 0 1 0-32-32 32 32 0 0 0 32 32zm160 160H272v-91.7l-32 8.5V224H64a32 32 0 0 0-32 32v224a32 32 0 0 0 32 32h384a32 32 0 0 0 32-32V256a32 32 0 0 0-32-32zM176 384H80v-96h96zm128 0h-96v-96h96zm128 0h-96v-96h96z"
     class="fa-primary"
     id="path8"
     style="fill:#7030a0;fill-opacity:1" />
</svg>
