<?xml version="1.0" encoding="UTF-8" standalone="no"?>
<svg
   viewBox="0 0 512 512"
   version="1.1"
   id="svg10"
   sodipodi:docname="wrench.svg"
   inkscape:version="1.1 (c68e22c387, 2021-05-23)"
   xmlns:inkscape="http://www.inkscape.org/namespaces/inkscape"
   xmlns:sodipodi="http://sodipodi.sourceforge.net/DTD/sodipodi-0.dtd"
   xmlns="http://www.w3.org/2000/svg"
   xmlns:svg="http://www.w3.org/2000/svg">
  <sodipodi:namedview
     id="namedview12"
     pagecolor="#ffffff"
     bordercolor="#666666"
     borderopacity="1.0"
     inkscape:pageshadow="2"
     inkscape:pageopacity="0.0"
     inkscape:pagecheckerboard="0"
     showgrid="false"
     inkscape:zoom="1.3203125"
     inkscape:cx="255.6213"
     inkscape:cy="255.6213"
     inkscape:window-width="4096"
     inkscape:window-height="2097"
     inkscape:window-x="-8"
     inkscape:window-y="-8"
     inkscape:window-maximized="1"
     inkscape:current-layer="svg10" />
  <!-- Font Awesome Pro 5.15.3 by @fontawesome - https://fontawesome.com License - https://fontawesome.com/license (Commercial License) -->
  <defs
     id="defs4">
    <style
       id="style2">.fa-secondary{opacity:.4}</style>
  </defs>
  <path
     d="M322 280.47l-.26.26a144.62 144.62 0 0 1-90.3-90.64L18.09 403.41a64 64 0 0 0 90.5 90.5L322 280.49zM63.35 472.65a24 24 0 1 1 24-24 24 24 0 0 1-24 24z"
     class="fa-secondary"
     id="path6" />
  <path
     d="M469.69 246.2c-40 40-97.48 51-147.72 34.27l-.26.26a144.64 144.64 0 0 1-90.41-90.94l.13-.13c-16.54-50.17-5.6-107.71 34.13-147.4a144.38 144.38 0 0 1 136.91-38 12 12 0 0 1 5.67 20.19l-74.53 74.48 11.33 68L413 178.28l74.53-74.52a12 12 0 0 1 20.17 5.52 144 144 0 0 1-38.01 136.92z"
     class="fa-primary"
     id="path8"
     style="fill:#7030a0;fill-opacity:1" />
</svg>
